<svg width="200" height="150" xmlns="http://www.w3.org/2000/svg">

 <g>
  <title>background</title>
  <rect fill="none" id="canvas_background" height="152" width="202" y="-1" x="-1"/>
 </g>
 <g>
  <title>Layer 1</title>
  <path stroke="null" id="svg_1" d="m112.516375,54.774357l-19.930078,0c-0.56777,0 -0.56777,-0.736808 0,-0.736808l19.930078,0c0.563894,0 0.563894,0.735126 0,0.736808zm-1.420394,-1.30876c0.455379,0 0.82937,-0.158128 0.82937,-0.353264l0,-1.212874c0,-0.198501 -0.370116,-0.359993 -0.821619,-0.359993l0,-0.763723l0.761548,0c0.044569,0 0.079449,-0.11439 0.079449,-0.24392c0,-0.136259 -0.03488,-0.250649 -0.079449,-0.250649l-1.39714,0l0,1.756227l0.455379,0c0.271289,0 0.358489,0.047102 0.358489,0.154763l0,0.698117c0,0.040373 -0.079449,0.079064 -0.186027,0.079064c-0.096889,0 -0.172463,-0.037009 -0.172463,-0.079064l0,-0.267471c0,-0.037009 -0.149209,-0.074017 -0.325547,-0.074017c-0.170525,0 -0.311983,0.035326 -0.311983,0.074017l0,0.489523c0,0.191772 0.360427,0.353264 0.809992,0.353264zm-2.893107,-0.353264l0,-2.518269c0,-0.200183 0.364303,-0.361675 0.813868,-0.361675c0.453441,0 0.813868,0.161492 0.813868,0.361675l0,2.518269c0,0.191772 -0.360427,0.353264 -0.813868,0.353264c-0.447627,0 -0.813868,-0.161492 -0.813868,-0.353264zm0.635592,-0.222052c0,0.042055 0.079449,0.079064 0.182151,0.079064s0.178276,-0.038691 0.178276,-0.079064l0,-2.082576c0,-0.042055 -0.075573,-0.075699 -0.178276,-0.075699s-0.182151,0.033644 -0.182151,0.075699l0,2.082576zm-1.145229,-0.602231c0.044569,0 0.079449,-0.105979 0.079449,-0.24392c0,-0.137941 -0.03488,-0.250649 -0.079449,-0.250649l-1.092909,0c-0.042631,0 -0.06976,0.11439 -0.06976,0.250649c0,0.136259 0.027129,0.24392 0.06976,0.24392l1.092909,0zm-2.406724,1.177547c0.447627,0 0.813868,-0.161492 0.813868,-0.353264l0,-2.784058c0,-0.035326 -0.13952,-0.065606 -0.313921,-0.065606s-0.321672,0.03028 -0.321672,0.065606l0,2.562006c0,0.040373 -0.079449,0.079064 -0.178276,0.079064c-0.10464,0 -0.187965,-0.037009 -0.187965,-0.079064l0,-2.562006c0,-0.035326 -0.137582,-0.065606 -0.310045,-0.065606c-0.1744,0 -0.321672,0.03028 -0.321672,0.065606l0,2.784058c0,0.191772 0.360427,0.353264 0.819681,0.353264zm0.065885,23.280107l-5.666072,0c-0.56777,0 -0.56777,0.736808 0,0.736808l5.666072,0c0.56777,-0.001682 0.56777,-0.736808 0,-0.736808zm93.003802,-69.653595l-30.618879,21.922563l0.885566,0.947084c0.249974,0.269154 0.143396,0.568587 -0.0872,0.735126l-24.945056,17.816288c2.493924,1.737723 4.311563,3.672265 5.359902,5.859138l0.976642,0.112708c0.05232,0.006729 0.352676,0.154763 0.385618,0.193454c2.895045,3.157509 5.038231,6.977808 6.226091,11.200155l0,0.006729c0.534828,1.882393 0.879753,3.853944 1.007646,5.884371l0,0.011775c0.040693,0.615689 0.060071,1.246518 0.060071,1.884075c0,10.59456 -5.801717,19.853445 -14.413216,24.65279c-0.596837,0.331395 -1.207238,0.640922 -1.821514,0.931944l-1.771132,7.887884l-1.370011,6.098012c-1.819576,4.104593 -5.817219,8.740764 -9.752852,11.450805c-0.042631,0.225416 -0.238347,0.427281 -0.596837,0.427281l-4.697181,0c-0.321672,0 -0.604588,-0.24392 -0.604588,-0.52485l0,-9.943544l-0.635592,0l-4.212736,7.566581c-0.040693,0.068971 -0.238347,0.17495 -0.325547,0.17495l-6.778358,0l-2.699329,7.950125c-0.060071,0.173268 -0.373992,0.373451 -0.579397,0.373451l-9.704408,0c-0.201529,0 -0.523201,-0.200183 -0.575521,-0.373451l-2.705142,-7.950125l-6.770607,0c-0.0872,0 -0.284854,-0.105979 -0.325547,-0.17495l-4.212736,-7.566581l-0.635592,0l0,9.943544c0,0.280929 -0.280978,0.52485 -0.60265,0.52485l-4.697181,0c-0.352676,0 -0.55033,-0.201865 -0.594899,-0.427281c-3.935633,-2.711723 -7.933276,-7.34453 -9.752852,-11.450805l-1.366136,-6.098012l-1.771132,-7.887884c-0.62009,-0.291022 -1.224678,-0.602231 -1.827328,-0.931944c-8.617312,-4.801028 -14.415153,-14.05823 -14.415153,-24.65279c0,-0.637558 0.019378,-1.268386 0.060071,-1.895851c0.133707,-2.033792 0.474756,-4.001978 1.003771,-5.8911l0.003876,0c1.18786,-4.225712 3.331046,-8.042647 6.226091,-11.200155c0.036818,-0.038691 0.333298,-0.186725 0.389494,-0.193454l0.968891,-0.112708c1.052215,-2.185191 2.869854,-4.121415 5.363778,-5.859138l-24.945056,-17.816288c-0.230596,-0.166539 -0.337174,-0.467654 -0.083325,-0.735126l0.885566,-0.947084l-30.622754,-21.922563c-0.310045,-0.222052 -0.269352,-0.543354 -0.075573,-0.741855l1.121975,-1.150632c0.096889,-0.146352 0.271289,-0.247285 0.525139,-0.24392l2.848538,0.037009c0.242223,0.006729 0.310045,0.079064 0.337174,0.09925l61.621438,37.844682l1.401016,0l0,-5.744748l2.024981,-2.121267l0.984393,-0.338124l-4.148789,-4.114686l-0.094951,-0.124484l-4.454959,-8.474975c-0.317796,-0.605596 0.304232,-1.037924 0.912695,-0.627464l14.639936,9.756819c0.036818,0.03028 0.211218,0.260743 0.218969,0.301116l1.180109,4.572247l4.356132,-1.688939l2.180004,-15.247553c0.763486,-3.027978 2.354404,-4.607574 5.400596,-4.607574l9.762541,0c2.730334,0 4.317376,1.258293 5.156435,3.773197c0.089138,0.255696 0.172463,0.550083 0.242223,0.834376l2.180004,15.244189l4.360007,1.692303l1.176233,-4.572247c0.011627,-0.042055 0.180214,-0.270836 0.217031,-0.301116l14.641874,-9.756819c0.606525,-0.410459 1.234367,0.021869 0.912695,0.627464l-4.454959,8.474975l-0.094951,0.124484l-4.150727,4.114686l0.984393,0.338124l2.024981,2.121267l0,5.744748l1.402953,0l61.6195,-37.846365c0.029067,-0.020187 0.100765,-0.092522 0.342987,-0.09925l2.8466,-0.037009c0.251912,-0.001682 0.426312,0.097568 0.525139,0.24392l1.120037,1.152314c0.19184,0.198501 0.232534,0.519803 -0.079449,0.741855zm-70.973169,28.695141l-0.27904,10.140363l3.177961,-1.944635l-0.904944,0l0,-6.412585l-1.550225,-1.628379l-0.443752,-0.154763zm-12.613017,22.684604l2.164501,1.1725c0.678223,0.368404 0.040693,1.256611 -0.635592,0.886525c-0.321672,-0.173268 -2.119932,-0.852881 -2.652822,-1.502214l-1.151042,3.421616l4.892897,-1.601464l77.741838,-54.828276l-0.992144,0.016822l-67.070478,41.190598l-0.079449,2.947232c-0.019378,0.699799 -1.22274,0.671202 -1.199486,-0.026915l0.420498,-15.469605c0,-0.037009 0.118205,-0.302798 0.151147,-0.329713l4.396825,-4.363653l3.418246,-6.491649l-12.552946,8.367313l-6.851994,26.610883zm-4.675866,7.416865l3.854247,-11.501271l-1.408767,-10.002422c-0.695663,-2.747049 -1.953283,-3.739553 -4.216612,-3.739553l-11.64994,0c-2.263328,0 -3.520948,0.992504 -4.220487,3.739553l-1.401016,10.002422l3.850371,11.501271l1.976537,5.896147l1.711061,5.103826l0.027129,0.14467c0,0.301116 -1.567665,5.992033 -1.567665,5.992033l5.447103,1.418103l5.44904,-1.418103c0,0 -1.569603,-5.692599 -1.569603,-5.992033l0.023253,-0.14467l1.716874,-5.103826l1.978474,-5.896147zm-2.505551,11.205202l0.019378,0.102615l3.534513,-4.165152c-0.267414,-0.079064 -0.39337,-0.306162 -0.381743,-0.52485l-1.635487,0l-1.53666,4.587387zm8.026289,33.595419l0.540641,-2.419018l0.635592,0.104297l0.2616,-1.23306l2.648947,-12.448355l-12.198332,-1.547633c-0.065885,-0.006729 -0.246098,-0.122801 -0.277103,-0.17495l-0.10464,-0.178314l-1.73819,-3.229844l-5.766836,0l-1.744003,3.229844l-0.102702,0.178314c-0.023253,0.052149 -0.20928,0.169903 -0.277103,0.17495l-12.190581,1.547633l2.645071,12.448355l0.263538,1.23306l0.635592,-0.104297l0.544516,2.4207l-0.666597,0.105979l0.699539,3.278628l6.218339,0l1.949408,-6.935753l1.058028,-3.758058c0.050382,-0.185043 0.360427,-0.395319 0.583272,-0.395319l6.528384,0c0.218969,0 0.534828,0.210276 0.583272,0.395319l1.056091,3.758058l1.949408,6.935753l6.229966,0l0.695663,-3.278628l-0.660783,-0.107661zm-38.528901,-34.764556l-0.094951,-0.134577l0.03488,-0.324667l-0.124018,-0.052149l-0.063947,0.164857l0.063947,0.267471l0.184089,0.079064zm-0.217031,0.492888l-0.091076,0.047102l0.249974,0.055513l-0.158898,-0.102615zm0.032942,-1.115305l-0.063947,-0.213641l-0.091076,0.188408l0.155022,0.025233zm0.186027,-0.56354l-0.404996,0.028598l0,0.188408l0.094951,0.052149l0.060071,-0.218687l0.249974,-0.050466zm-0.996019,1.266704l0,0.163174l0.215094,0.164857l0.155022,-0.105979l-0.215094,-0.085793l-0.031004,-0.297751l-0.218969,0l0.094951,0.161492zm1.680056,-4.160106l0.310045,0.031962l0.155022,0.048784l0.027129,-0.141306l0.003876,-0.04542l-0.060071,-0.023551l-0.224783,0.068971l-0.211218,0.06056zm0.249974,-0.354946l0.060071,-0.075699l-0.155022,-0.03028l-0.124018,0.164857l0.218969,-0.058877zm1.059966,-0.588774l0,0.131212l0.151147,-0.050466l0.063947,-0.080746l-0.215094,0zm0.060071,-1.325582l0.091076,-0.164857l-0.151147,0.109344l0.060071,0.055513zm0.534828,2.040521l-0.253849,0.038691l0.110454,0.127848l0.015502,0.006729l0.127894,0.14467l-0.162774,-0.035326l0.094951,0.134577l0.060071,0.671202l0,2.190238l0,0.132895l0.003876,0.410459l0.003876,0.499616l-0.253849,0.117755l0.253849,-0.048784l0.007751,1.369319l1.540536,0.413824l-0.05232,-0.17495l0,-3.830393l0.118205,0.19009l0.249974,0l-0.031004,-0.217005l-0.218969,-0.111026l-0.118205,-0.519803l0.182151,-0.104297l-0.182151,-0.016822l-0.003876,-1.229696l0,-0.622418l0.151147,-0.072335l0.158898,0.164857l0.155022,-0.139623l-0.031004,-0.161492l-0.436001,0.080746l0.404996,-0.215323l-0.158898,-0.105979l-0.155022,-0.080746l-0.0872,-0.257378l-0.003876,-1.120352l-1.488216,-0.06056l-0.011627,0.817554l-0.120142,0.188408l0.023253,0.277565l-0.0872,0.154763l0.118205,0.592138l-0.05232,-0.107661l0,0.191772l0.067822,0l0.060071,0.316256zm2.856289,2.148182l-0.215094,-0.351582l-0.031004,0.19009l0.246098,0.161492zm-0.060071,0.405413l0.094951,0.082428l0,-0.245603l-0.094951,0.163174zm-0.184089,0.568587l0,0.186725l0.155022,-0.161492l-0.155022,-0.025233zm-0.03488,2.620883l-0.091076,0.134577l-0.249974,-0.026915l0.155022,0.134577l0.341049,-0.15981l-0.155022,-0.082428zm-0.311983,-2.514904l0.031004,0.163174l0.031004,-0.163174l-0.062009,0zm0.189903,-1.355861l-0.063947,-0.047102l-0.094951,0.163174l0.158898,-0.116073zm0.091076,3.596565l-0.060071,-0.270836l-0.158898,0.03028l0.063947,0.217005l0.155022,0.023551zm-0.060071,-5.862502l-0.094951,-0.053831l-0.249974,0.109344l0.313921,0.080746l0.031004,-0.136259zm-0.189903,-1.783143l-0.091076,-0.161492l-0.124018,0.348218l0.215094,-0.186725zm-0.370116,7.647327l-0.031004,0.164857l0.186027,0l0.155022,-0.134577l-0.310045,-0.03028zm-0.218969,-0.486159l0.060071,0.245603l0.158898,0.052149l-0.218969,-0.297751zm0.249974,-1.160725l-0.155022,-0.137941l-0.189903,0.052149l-0.060071,0.085793l0.404996,0zm0.124018,-0.328031l-0.063947,-0.217005l-0.373992,-0.052149l0.03488,0.136259l0,0.245603l0.124018,-0.193454l0.155022,0.193454l0.124018,0.026915l0,-0.139623zm-0.155022,-2.678079l-0.313921,-0.12953l0.189903,0.267471l0.124018,-0.137941zm-0.344925,0.847834l0.280978,-0.164857l0,-0.087475l-0.280978,0.252332zm0.344925,-1.65193l0.091076,-0.161492l-0.155022,-0.025233l-0.031004,0.134577l0.094951,0.052149zm0.120142,-1.594735l-0.060071,-0.161492l-0.249974,-0.025233l0.158898,0.211958l0.151147,-0.025233zm-2.579187,6.187169l-0.060071,-0.186725l0,-0.082428l0.151147,-0.082428l-0.091076,-0.132895l-0.155022,-0.137941l-0.124018,0.137941l0.031004,-0.191772l-0.189903,0l-0.280978,0.03028l0.313921,0.213641l-0.313921,0.245603l0.218969,0.215323l-0.031004,-0.245603l0.310045,-0.188408l-0.060071,0.272518l0.280978,0.132895zm-0.249974,0.240556l0,0.085793l0.155022,-0.055513l-0.155022,-0.03028zm0.248036,0.486159l0.186027,0.164857l0,-0.269154l-0.186027,0.104297zm0.218969,-1.803329l-0.218969,0.079064l-0.155022,0.079064l-0.158898,0.031962l0.03488,0.109344l0.246098,-0.085793l0.251912,-0.213641zm-0.251912,-0.084111l-0.151147,-0.031962l0,0.141306l0.151147,-0.109344zm0.313921,-0.031962l0.031004,0.166539l0.215094,-0.050466l-0.306169,-0.245603l-0.158898,-0.161492l-0.031004,-0.217005l0.031004,-0.217005l-0.310045,0.085793l0.155022,0.31962l0.373992,0.31962zm-0.529014,-0.994186l-0.031004,0.134577l0.186027,0l0.249974,0.053831l0.063947,-0.137941l-0.253849,-0.104297l0,-0.137941l0.124018,-0.161492l-0.124018,-0.19009l-0.091076,0.19009l-0.189903,0.053831l0.065885,0.299433zm0.189903,-1.024466l0.027129,-0.193454l-0.151147,-0.185043l-0.189903,0.131212l0.155022,0l0.158898,0.381862l-0.189903,0.052149l-0.031004,0.134577l0.246098,-0.028598l0.158898,0.163174l-0.03488,-0.163174l0.094951,-0.161492l-0.24416,-0.131212zm0.523201,0.780546l-0.218969,-0.080746l0.158898,0.109344l0.060071,-0.028598zm-0.027129,0.56354l-0.031004,0.136259l0.060071,0l-0.029067,-0.136259zm-0.218969,-2.319768l-0.063947,0.050466l0.310045,0.245603l-0.060071,-0.245603l-0.186027,-0.050466zm-0.437939,-0.025233l0.03488,0.322984l0.151147,-0.057195l-0.027129,0.270836l0.151147,-0.053831l0.03488,-0.351582l-0.344925,-0.131212zm0.125956,-0.8983l-0.124018,0.164857l-0.186027,0.028598l0.155022,0.079064l0.155022,-0.079064l0,-0.193454zm-0.029067,-1.211191l-0.094951,-0.137941l-0.186027,-0.048784l0.124018,0.213641l0,0.107661l0.15696,-0.134577zm-0.155022,-0.538307l-0.098827,-0.201865l-0.197654,-0.003364l0.296481,0.20523zm-0.751859,3.885906l-0.155022,-0.161492l0,0.136259l0.155022,0.025233zm-0.091076,0.297751l0.186027,0.028598l0.249974,0l0.060071,-0.084111l-0.310045,-0.047102l-0.186027,0.102615zm-0.094951,0.242238l-0.031004,0.164857l0.186027,-0.055513l0.031004,-0.105979l0,-0.001682l-0.186027,0l0,-0.001682zm-0.124018,0.489523l0.063947,0.186725l0.246098,-0.048784l0,-0.164857l-0.091076,-0.166539l-0.218969,0.193454zm0.15696,0.373451l0.155022,0.136259l0.310045,0.03028l-0.091076,-0.052149l-0.186027,-0.161492l-0.187965,0.047102zm0.529014,-0.235509l0.249974,0.048784l-0.03488,-0.242238l-0.155022,-0.267471l0.127894,-0.166539l-0.189903,-0.079064l-0.218969,0.080746l-0.120142,0.328031l0.186027,0l-0.158898,0.269154l0.063947,0.104297l0.249974,-0.075699zm0.029067,-4.459539l0.031004,0.053831l0.127894,-0.136259l-0.158898,0.082428zm-0.27904,2.022017l-0.031004,0.161492l0.186027,-0.052149l0.125956,-0.107661l-0.280978,0l0,-0.001682zm0.218969,-0.487841l-0.03488,-0.211958l-0.031004,-0.408777l-0.218969,0.055513l0,0.107661l0.094951,0.164857l0,0.161492l0.189903,0.131212zm-0.249974,-0.75363l-0.060071,-0.217005l-0.03488,0.161492l0.094951,0.055513zm-0.406934,-0.595502l-0.063947,-0.131212l-0.151147,0.104297l0.186027,0.104297l0.029067,-0.077382zm-0.401121,2.678079l-0.031004,0.164857l-0.186027,-0.03028l-0.155022,-0.104297l-0.063947,0.134577l0.218969,0.104297l0.370116,-0.03028l-0.031004,-0.131212l0.313921,-0.03028l0.091076,-0.161492l-0.527076,0.084111zm0.248036,0.590456l0.091076,0.297751l0.098827,-0.188408l-0.189903,-0.109344zm-0.249974,0.057195l0.094951,0.164857l0.060071,-0.026915l-0.155022,-0.137941zm-0.186027,0.217005l0.031004,-0.137941l-0.310045,0.028598l0.120142,0.217005l0.189903,0.031962l-0.031004,-0.139623zm-1.433958,-3.944783l-0.060071,-0.137941l-0.155022,-0.238874l0.124018,-0.139623l-0.124018,0.03028l-0.094951,0.131212l-0.031004,0.24392l0.341049,0.111026zm-0.12208,0.321302l-0.155022,-0.026915l0.186027,0.164857l-0.031004,-0.137941zm-0.218969,-1.323899l0.373992,0l-0.310045,-0.161492l-0.063947,0.161492zm0.186027,-0.565223l-0.120142,-0.109344l-0.03488,0.188408l0.155022,-0.079064zm0,0.755312l-0.060071,0.164857l0.155022,-0.111026l-0.094951,-0.053831zm0.280978,0.217005l0.189903,-0.082428l-0.094951,-0.134577l-0.249974,0.217005l0.155022,0zm1.121975,0.482794l-0.249974,-0.052149l-0.249974,-0.211958l-0.186027,0.021869l-0.313921,-0.131212l-0.060071,0.213641l0.310045,0l0.091076,0.134577l-0.215094,0.161492l0.189903,0.218687l0.310045,-0.242238l0.186027,-0.026915l0.187965,-0.085793zm-0.158898,0.191772l0,0.137941l0.094951,0.131212l0.091076,-0.161492l-0.186027,-0.107661zm-0.089138,1.271751l0.091076,0.109344l0.063947,-0.164857l-0.155022,0.055513zm-0.280978,-0.459243l-0.094951,-0.161492l-0.124018,0.077382l0.218969,0.084111zm-0.094951,1.646884l0.060071,0l0.03488,-0.134577l-0.094951,0.134577zm0.155022,-2.190238l-0.404996,0.19009l-0.155022,-0.104297l0.280978,0.240556l0.124018,-0.195136l0.155022,-0.131212zm-0.746046,0.545036l0.186027,0.105979l0.125956,-0.026915l-0.311983,-0.079064zm0.091076,0.430646l0.189903,0.050466l0.186027,-0.050466l-0.310045,-0.080746l-0.065885,0.080746zm-0.031004,0.538307l0.155022,0.15981l0.011627,0.023551l0.114329,0.227098l0.189903,-0.031962l0.027129,-0.195136l0,-0.023551l-0.215094,-0.026915l-0.094951,-0.132895l-0.187965,0zm0.437939,1.645202l-0.060071,0.082428l0.120142,0.161492l0.253849,-0.12953l-0.313921,-0.11439zm0.403058,-1.725948l-0.031004,-0.136259l-0.124018,-0.026915l0.155022,0.163174zm-0.060071,1.921084l0.155022,-0.053831l-0.155022,0l0,0.053831zm0.249974,-0.514756l-0.189903,-0.03028l-0.060071,0.085793l0.249974,-0.055513zm0.215094,-0.975682l-0.215094,0.028598l-0.063947,0.193454l0.27904,-0.222052zm0.220907,1.436607l-0.03488,-0.139623l-0.120142,0.055513l0.155022,0.084111zm0.060071,-0.733444l-0.249974,0.052149l0.218969,0.03028l0.031004,-0.082428zm-0.249974,-1.973233l-0.12208,-0.136259l0.060071,-0.19009l-0.218969,0l0.094951,0.513074l0.186027,-0.186725zm-0.031004,-1.574549c-0.170525,-0.006729 -0.387556,-0.085793 -0.484445,-0.131212c0.096889,0.04542 0.306169,0.124484 0.352676,0.124484l0.131769,0.006729zm-0.511574,-0.141306l-0.040693,-0.035326l0.062009,0.15981l0.155022,0.026915l-0.172463,-0.149717c-0.001938,-0.001682 -0.003876,-0.001682 -0.003876,-0.001682zm-1.389389,0.556812l0.189903,-0.242238l-0.404996,0.131212l0.031004,0.137941l0.155022,0.052149l0.124018,0.139623l-0.094951,-0.218687zm-0.058133,2.567053l0,0.186725l0.060071,-0.052149l-0.060071,-0.134577zm-0.063947,1.214556l-0.186027,0.137941l0.155022,-0.031962l0.031004,-0.105979zm-0.217031,0.972317l0.031004,0.163174l0.186027,-0.269154l-0.217031,0.105979zm0.436001,-5.376344l-0.155022,-0.134577l0,0.24392l0.155022,-0.109344zm-0.465067,1.969868l-0.03488,0.22037l0.094951,-0.22037l-0.060071,0zm-0.063947,1.465205l0.094951,0.131212l0.063947,-0.430646l-0.094951,0l-0.063947,0.299433zm0.029067,3.453577l0.158898,-0.213641l-0.158898,-0.03028l0,0.24392zm0.093013,0.2742l0.027129,0.035326l0.186027,0.047102l0.038756,-0.247285l-0.251912,0.164857zm0.313921,-1.5981l-0.277103,0.186725l0.151147,0.111026l0.125956,-0.297751zm0.091076,-3.456942l0.031004,0.215323l0.031004,-0.353264l-0.15696,-0.077382l0.094951,0.215323zm-0.060071,1.327264l0.215094,0.183361l0.189903,-0.052149l0.031004,-0.131212l-0.404996,-0.03028l-0.031004,0.03028zm0.372054,1.969868l0.155022,0.031962l-0.091076,-0.137941l-0.063947,-0.028598l0,0.134577zm0.249974,-3.350963l-0.280978,-0.215323l-0.124018,0.164857l0.189903,-0.033644l0.215094,0.084111zm-0.031004,1.646884l0.031004,0.082428l0.404996,-0.050466l-0.249974,-0.137941l-0.186027,0.105979zm0.656908,3.352645l0.124018,-0.136259l-0.189903,-0.105979l0.065885,0.242238zm0.248036,-1.675481l-0.124018,-0.213641l0.215094,-0.057195l0.189903,0l-0.094951,-0.163174l-0.218969,-0.023551l-0.215094,0.104297l-0.03488,0.245603l0.063947,0.079064l-0.031004,0.166539l0.249974,-0.137941zm0.496072,-0.136259l0,-0.136259l-0.189903,0l0.189903,0.136259zm-0.031004,0.755312l0.310045,-0.080746l0,-0.132895l-0.155022,0.026915l-0.155022,0.186725zm0.186027,1.56782l0.124018,0.22037l0.031004,0.104297l0.094951,-0.188408l-0.249974,-0.136259zm0.27904,-2.000148l-0.091076,-0.267471l-0.155022,0.053831l0.060071,0.137941l0.031004,0.131212l0.155022,-0.055513zm0.125956,-0.508027l-0.215094,0l0.060071,0.164857l0.155022,-0.164857zm-0.124018,1.808376l0.094951,-0.137941l-0.094951,-0.026915l0,0.164857zm0.160836,-0.651015l0.246098,0.057195l0.282916,-0.2742l-0.193778,0.028598l-0.151147,-0.052149l-0.344925,0.052149l0.160836,0.188408zm0.744108,0.137941l0.094951,-0.38018l0.246098,-0.186725l-0.246098,0.080746l-0.253849,-0.188408l0.094951,0.134577l0,0.321302l-0.094951,0.111026l-0.277103,0.050466l-0.063947,0.245603l0.499948,-0.188408zm-0.625903,1.349133l0.063947,0.132895l0.186027,-0.025233l-0.249974,-0.107661zm0.358489,1.498849l0.060071,1.852113l9.049438,5.529425l7.553471,-1.387823l0.048445,-1.463523l-16.711424,-4.530192zm4.406514,-4.257674l-0.03488,0.109344l0.249974,0.082428l-0.063947,-0.137941l-0.151147,-0.053831zm0.094951,-0.296069l-0.063947,-0.158128l0,0.158128l0.063947,0zm0.556143,-1.079979l-0.155022,-0.105979l-0.060071,0.188408l0.120142,0.134577l0,-0.164857l0.094951,-0.052149zm-0.12208,3.756375l0.027129,0.163174l0.158898,0.031962l-0.186027,-0.195136zm0.062009,-4.404026l-0.003876,-0.035326l-0.031004,-0.206912l-0.186027,0l0.186027,0.206912l0.03488,0.035326zm-0.341049,1.350815l0.215094,0.109344l0,-0.22037l-0.215094,0.111026zm-0.063947,3.218068l-0.03488,-0.161492l-0.151147,0.105979l0.277103,0.297751l-0.091076,-0.242238zm0.809992,0.242238l0.186027,0.053831l-0.094951,-0.132895l-0.091076,0.079064zm0.031004,-0.297751l0.094951,-0.107661l-0.189903,-0.053831l0.094951,0.161492zm0.155022,-0.59382l-0.186027,-0.111026l0.060071,0.137941l0.125956,-0.026915zm-0.186027,-1.111941l0.031004,-0.107661l-0.186027,0.028598l0.155022,0.079064zm0.124018,-1.212874l-0.124018,-0.166539l-0.189903,0.055513l-0.091076,0.137941l0.217031,0.079064l0.187965,-0.105979zm0.249974,1.675481l0.031004,-0.082428l-0.189903,0.053831l0.158898,0.028598zm0.906882,-2.296217l0.031004,-0.43401l-0.158898,0.161492l-0.031004,0.136259l0.120142,0.191772l0.158898,0.048784l0.120142,-0.080746l-0.240285,-0.023551zm-0.06976,4.267767l-0.060071,0.383544l0.218969,-0.410459l-0.158898,-0.082428l-0.155022,-0.079064l0.155022,0.188408zm0.031004,-2.836206l-0.186027,-0.028598l0.222845,0.24392l0.186027,0l-0.222845,-0.215323zm0.187965,-1.212874l-0.151147,0.020187l0,0.055513l0.151147,-0.075699zm-0.342987,1.591371l-0.031004,0.161492l0.186027,-0.245603l-0.277103,-0.104297l0.12208,0.188408zm-0.001938,0.568587l0.063947,0.183361l0.186027,0.026915l-0.249974,-0.210276zm-0.029067,-1.461841l-0.091076,-0.136259l-0.155022,0.079064l0.246098,0.057195zm-0.091076,-0.539989l0,-0.185043l-0.063947,0.185043l0.063947,0zm0,-0.324667l-0.03488,-0.19009l-0.155022,-0.082428l0.094951,0.218687l0.094951,0.053831zm-0.220907,0.437375l0.031004,0.210276l0.03488,-0.161492l-0.065885,-0.048784zm0.065885,2.29117l0.186027,0.137941l-0.094951,-0.19009l-0.091076,0.052149zm0.155022,0.862974l0.155022,-0.079064l-0.155022,0.028598l0,0.050466zm0.49801,0.139623l-0.222845,0.025233l0.094951,0.107661l0.127894,-0.132895zm0.031004,-0.758677l-0.124018,-0.134577l-0.060071,0.082428l0.184089,0.052149zm-0.284854,-3.837121l-0.203467,-0.195136l-0.040693,-0.04542l0.015502,0.04542l0.044569,0.116073l0.184089,0.079064zm-0.155022,-1.054746l-0.246098,-0.186725l-0.155022,0.053831l0,0.215323l0.277103,-0.053831l0.124018,-0.028598zm-0.589085,1.138856l0.218969,0.050466l-0.029067,-0.134577l-0.189903,0.084111zm0.187965,4.969249l0.060071,0l0.031004,-0.132895l-0.091076,0.132895zm-0.218969,-4.649629l0.031004,0.164857l0.189903,0.105979l0,-0.188408l-0.220907,-0.082428zm0,2.380327l0.031004,0.132895l0.124018,-0.107661l-0.155022,-0.025233zm0.094951,2.186873l-0.093013,0.136259l0.124018,0.03028l-0.031004,-0.166539zm1.054153,-4.999529l0.031004,0.163174l0.344925,-0.269154l-0.37593,0.105979zm0.220907,-0.644286l0.007751,-0.052149l-0.158898,-0.09925l0.151147,0.151399zm0.465067,5.9668l-0.094951,0.169903l0.155022,-0.058877l-0.120142,-0.24392l-0.124018,0.164857l0.184089,-0.031962zm-0.153085,-1.13381l0.155022,-0.104297l-0.186027,-0.107661l0.031004,0.211958zm0.215094,-0.997551l0.127894,-0.134577l-0.218969,-0.109344l0.031004,0.164857l0.060071,0.079064zm-0.062009,-1.189323l-0.155022,-0.134577l0.094951,0.161492l0.060071,-0.026915zm-0.280978,0.622418l0.186027,0.077382l0.03488,-0.348218l-0.220907,0.270836zm0.096889,-0.785592l-0.063947,-0.163174l-0.031004,0.163174l0.094951,0zm-0.063947,-1.455112l-0.060071,-0.161492l-0.091076,0.292705l0.151147,-0.131212zm-0.153085,3.559557l-0.063947,0.385226l0.155022,-0.109344l-0.091076,-0.275882zm-0.217031,-3.322365l0,0.164857l0.124018,-0.136259l-0.124018,-0.028598zm10.781814,9.265614c0.269352,-0.977364 0.631717,-2.282759 0.897193,-3.281992l-4.650675,-5.494098l-3.724415,0c-0.03488,0 -0.317796,-0.075699 -0.348801,-0.095886l-1.933906,-1.182594l-0.127894,-0.084111l0,0.084111l0.003876,1.113623l-0.370116,0l0,0.161492l0.155022,0.058877l0.158898,-0.031962l0.011627,0.245603l-0.170525,0l0.063947,0.188408l0.063947,0l0.044569,-0.139623l0.044569,0.923533l-0.031004,0.134577l0.031004,0.270836l-0.007751,2.070801l0.007751,0.306162l-0.003876,0.600549l-0.182151,-0.010093l0.182151,0.072335l0.003876,0.795685l-0.003876,0.617371l9.886559,2.676396zm1.24018,-4.646265l-1.521158,-4.684955l-1.631612,0c0.015502,0.218687 -0.112391,0.445786 -0.377867,0.52485l3.530637,4.160106zm0.703415,-52.713738l0.790615,1.998466c0.091076,0.232145 0.377867,0.420553 0.643343,0.420553l5.937361,0c0.269352,0 0.556143,-0.188408 0.651094,-0.420553l0.790615,-1.998466c0.0872,-0.230463 -0.05232,-0.420553 -0.321672,-0.420553l-8.181312,0c-0.259663,0 -0.399183,0.19009 -0.310045,0.420553zm0.790615,-1.744452c0.091076,0.230463 0.377867,0.415506 0.643343,0.415506l5.937361,0c0.269352,0 0.556143,-0.185043 0.651094,-0.415506l0.790615,-1.998466c0.0872,-0.232145 -0.05232,-0.420553 -0.321672,-0.420553l-8.181312,0c-0.2616,0 -0.401121,0.188408 -0.311983,0.420553l0.792552,1.998466zm-0.790615,5.48737l0.790615,1.998466c0.091076,0.228781 0.377867,0.41887 0.643343,0.41887l5.937361,0c0.269352,0 0.556143,-0.19009 0.651094,-0.41887l0.790615,-1.998466c0.0872,-0.232145 -0.05232,-0.417188 -0.321672,-0.417188l-8.181312,0c-0.259663,0 -0.399183,0.185043 -0.310045,0.417188zm0,3.7446l0.790615,1.998466c0.091076,0.233827 0.377867,0.417188 0.643343,0.417188l5.937361,0c0.269352,0 0.556143,-0.183361 0.651094,-0.417188l0.790615,-1.998466c0.0872,-0.233827 -0.05232,-0.420553 -0.321672,-0.420553l-8.181312,0c-0.259663,0 -0.399183,0.186725 -0.310045,0.420553zm0,3.741235l0.790615,2.00183c0.091076,0.228781 0.377867,0.413824 0.643343,0.413824l5.937361,0c0.269352,0 0.556143,-0.185043 0.651094,-0.413824l0.790615,-2.00183c0.0872,-0.228781 -0.05232,-0.417188 -0.321672,-0.417188l-8.181312,0c-0.259663,0 -0.399183,0.19009 -0.310045,0.417188zm17.038909,-0.168221l1.53666,10.764463l2.381533,-9.240381l-3.918193,-1.524082zm-26.026337,13.777301l0.162774,0.630829l0.746046,-5.314102c0.623966,-2.487989 1.763381,-4.04908 4.018958,-4.486455c0.548392,-0.2742 1.183984,-0.447468 1.914528,-0.519803l0.011627,-9.777006l-0.778988,0l0,-2.558642l0.786739,0l0,-1.566138c0.003876,-0.415506 0.722792,-0.415506 0.722792,0l-0.019378,13.876552l0.587148,0l0,-20.110823c0,-0.227098 0.211218,-0.417188 0.48057,-0.417188l9.568763,0c0.269352,0 0.48057,0.19009 0.48057,0.417188l0,20.110823l0.530952,0c1.040588,0 1.91259,0.179996 2.639258,0.545036c2.251702,0.437375 3.387241,1.998466 4.018958,4.486455l0.746046,5.32756l0.164711,-0.634193l-4.297998,-30.066143c-0.062009,-0.254014 -0.133707,-0.492888 -0.20928,-0.719986c-0.730543,-2.181827 -1.93003,-3.022932 -4.001518,-3.022932l-9.762541,0c-2.259453,0 -3.517073,1.002597 -4.216612,3.746282l-4.294123,30.052685zm-3.156645,-12.251537l2.377657,9.230287l1.532785,-10.752687l-3.910442,1.5224zm-11.233317,6.91893l3.176023,1.944635l-0.277103,-10.140363l-0.44569,0.154763l-1.548287,1.628379l0,6.412585l-0.904944,0zm-64.847843,-37.960755l77.745714,54.824912l4.883208,1.599782l-1.147166,-3.419933c-0.536765,0.649333 -2.327275,1.328946 -2.645071,1.502214c-0.680161,0.370086 -1.317691,-0.516439 -0.639468,-0.886525l2.164501,-1.1725l-2.278831,-8.841697c-0.040693,-0.067288 -0.063947,-0.153081 -0.063947,-0.245603l-4.511154,-17.520219l-12.551008,-8.367313l3.41437,6.491649l4.398763,4.363653c0.029067,0.025233 0.147271,0.292705 0.147271,0.329713l0.426312,15.469605c0.019378,0.698117 -1.183984,0.726715 -1.203362,0.026915l-0.083325,-2.947232l-67.06854,-41.190598l-0.988268,-0.016822zm55.546494,41.804605c0.118205,0.084111 0.240285,0.407095 0.201529,0.531578l-1.918403,6.671646l14.430656,12.485364l5.280453,0.178314c0.031004,0 0.298418,0.079064 0.325547,0.095886l5.995495,3.680676l5.793965,0l-1.718812,-5.139152l-1.251807,-0.440739l-4.224363,-1.50726l-5.983868,0.962224l-1.079344,0.543354l-2.092804,1.046335c-0.412747,0.211958 -0.77705,-0.328031 -0.356552,-0.538307l8.204565,-4.126462l6.094321,2.015288l-0.197654,-0.583727l-5.821094,-1.905944l-0.166649,-0.084111l-78.673911,-55.484338l-0.381743,0.391955l57.540471,41.207421zm-2.048235,28.873455l0,-1.461841l4.046087,0l0,-1.159043c-0.798366,0.230463 -1.647114,0.354946 -2.53268,0.354946c-0.782864,0 -1.540536,-0.097568 -2.255577,-0.282611l0,13.792441c0,0.230463 0.211218,0.41887 0.48057,0.41887l3.823242,0c0.269352,0 0.484445,-0.188408 0.484445,-0.41887l0,-0.437375l-4.046087,0l0,-1.460158l4.046087,0l0,-0.703164l-4.046087,0l0,-1.458476l4.046087,0l0,-0.701482l-4.046087,0l0,-1.460158l4.046087,0l0,-0.699799l-4.046087,0l0,-1.461841l4.046087,0l0,-0.696435l-4.046087,0l0,-1.461841l4.046087,0l0,-0.703164l-4.046087,0zm5.387031,-4.922147c1.775007,-1.068203 2.937676,-2.8463 2.937676,-4.86327c0,-0.351582 -0.03488,-0.689706 -0.102702,-1.024466l0,-0.003364c-0.135645,-0.689706 -0.416623,-1.340722 -0.809992,-1.927813l-2.493924,-2.190238c-0.806117,-0.373451 -1.668429,-0.627464 -2.581124,-0.716622l-1.643238,0c-0.170525,0.011775 -0.337174,0.037009 -0.503823,0.067288c2.557871,0.222052 4.639048,1.835291 5.226196,3.959923l-0.699539,0.149717c-0.556143,-2.013606 -2.645071,-3.512455 -5.13512,-3.512455c-2.7594,0 -5.022729,1.828562 -5.264951,4.170199c-0.015502,0.137941 -0.023253,0.275882 -0.023253,0.41887c0,2.535091 2.366031,4.585705 5.288205,4.585705c0.556143,0 1.081282,-0.074017 1.581229,-0.213641l0.218969,0.595502c-0.56777,0.158128 -1.17042,0.245603 -1.802136,0.245603c-1.247931,0 -2.406724,-0.329713 -3.367863,-0.893254c0.412747,0.442421 0.889442,0.831012 1.426207,1.14895l0,0.011775c1.10066,0.65438 2.433853,1.04297 3.875562,1.04297c1.437834,-0.001682 2.771027,-0.395319 3.873624,-1.051381zm-8.173561,-10.72409l-2.478422,0l0,2.156593c0.631717,-0.874749 1.480465,-1.609875 2.478422,-2.156593zm3.575206,-11.930235l0.203467,-0.703164l-26.167795,-18.734775l-0.503823,0.533261l26.468152,18.904678zm-6.68922,5.083639l5.408347,-0.634193l0.957264,-3.324047l-1.472714,-1.054746c-1.986226,1.350815 -3.80774,3.011156 -4.892897,5.012986zm-8.435161,24.400459l2.521053,0l0,-6.187169l0.170525,-0.637558l4.049962,-15.533529c0.023253,-0.092522 0.195716,-0.233827 0.310045,-0.240556l5.522676,-0.588774c0.031004,-0.211958 0.098827,-0.44915 0.170525,-0.666155l-6.297788,0.740172c-2.656698,2.94555 -4.646799,6.48492 -5.782339,10.397741l-0.003876,0c-0.548392,1.885758 -0.901068,3.857308 -1.036713,5.8911c-0.040693,0.627464 -0.060071,1.249882 -0.060071,1.884075c0,1.688939 0.151147,3.342552 0.436001,4.940651zm1.75563,0.6241l-1.627736,0c0.372054,1.813423 0.920446,3.561239 1.627736,5.216534l0,-5.216534zm25.260914,43.730736c-1.509531,-6.082872 -2.433853,-11.539962 -2.997747,-15.824551c-0.730543,-5.532789 -0.858437,-9.11085 -0.873939,-9.570094l-3.232219,-13.018625l-0.015502,-9.373275c0,-0.393637 0.342987,-0.610642 0.778988,-0.492888l4.889022,1.320535l0.003876,-1.941271l0,-0.346535l0.155022,0.158128l0.031004,-0.136259l-0.186027,-0.17495l0,-0.802414l0,-0.979046l-0.003876,-1.985008l0.003876,-0.141306l-0.003876,-0.925216l0,-1.500531l-0.001938,-0.001682l-1.552163,-1.340722l-0.280978,-0.245603c0.013564,0.084111 0.029067,0.161492 0.044569,0.245603c0.056196,0.338124 0.0872,0.676248 0.0872,1.02783c0,1.895851 -0.870064,3.608341 -2.282706,4.86327l0,0.003364c-0.658846,0.57868 -1.439771,1.068203 -2.302084,1.42315l0,19.222616l0.321672,0.14467c0.715041,0.316256 0.166649,1.243153 -0.548392,0.92858l-7.944902,-3.532641c-0.12208,-0.057195 -0.325547,-0.343171 -0.325547,-0.465972l0,-13.762161l-2.736147,-2.378645c-0.046507,-0.037009 -0.178276,-0.316256 -0.178276,-0.370086l0,-1.206145l0,-4.27786c-0.019378,-0.196819 -0.027129,-0.388591 -0.027129,-0.587091s0.007751,-0.391955 0.027129,-0.585409l0,-0.444103l0,-5.359522c0,-0.280929 0.280978,-0.523167 0.60265,-0.523167l6.491567,0c0.290667,-0.028598 0.591023,-0.04542 0.889442,-0.04542c0.302294,0 0.598774,0.01514 0.893317,0.04542l0.468943,0l-4.503403,-3.895999l-5.317271,0.492888l-3.966638,15.1769l-0.178276,0.676248l0,0.820919l0.623966,0l0,2.553595l-0.623966,0l0,3.088538c0,0.168221 -0.170525,0.312891 -0.360427,0.312891l-0.404996,0l0,6.765849c2.437729,4.839719 6.264846,8.828239 10.931023,11.435665l0.62009,0.336442l0.246098,0.124484c0.373992,0.188408 0.753797,0.375133 1.139415,0.546718c1.404891,0.649333 2.831098,1.165772 4.288309,1.56782c0.763486,0.208594 0.404996,1.206145 -0.360427,0.994186c-1.151042,-0.312891 -2.282706,-0.699799 -3.383366,-1.152314l1.631612,7.289017l1.286687,5.759888c1.647114,3.564603 4.875457,7.521162 8.136743,10.061299zm5.168062,-25.054838l-1.214989,-2.836206l-4.420079,-10.010833l-0.038756,-0.181679l0,-7.522844l-5.416098,-1.461841l0,8.490115l3.232219,13.016942c0.007751,0.055513 0.106578,3.781608 0.893317,9.73495l0,0.006729c0.604588,4.550379 1.616109,10.409517 3.300041,16.926399l3.664344,0l0,-26.161733zm3.255472,17.839839l-1.961034,-3.561239l-0.03488,-0.139623l0,-4.905325l0,-10.300173l-4.799884,-10.976421l-0.040693,-1.016055l-0.889442,-0.198501l0,0.12953l4.379385,9.921676l1.255682,2.928728l0.038756,0.178314l0,9.332902l0,6.883604l0.862313,0c0.0872,0 0.286792,0.105979 0.325547,0.17495l0.86425,1.547633zm9.349794,4.812803l1.647114,-5.855774l-6.346233,0c-0.145334,0 -0.325547,-0.12953 -0.356552,-0.255696l-1.552163,-7.307521l-2.691578,-12.653585c-0.038756,-0.173268 0.100765,-0.341489 0.302294,-0.363357l6.718287,-0.857927l-0.083325,-0.47943l5.460667,-0.693071l1.695558,-3.144051l-3.220592,-2.62593c0,0 -8.493294,0.605596 -8.981615,0.486159c-0.337174,-0.084111 -5.150622,-1.157361 -8.065045,-1.803329l0.023253,0.686342l4.803759,10.978104l0.011627,10.470076l0.007751,4.836354l5.177751,9.413648l5.65057,0l-0.193778,-0.558494c-0.001938,-0.016822 -0.009689,-0.254014 -0.007751,-0.272518zm16.145592,0.111026l-3.799989,-13.530016l-0.877815,-3.117135l-5.582747,0l-0.872001,3.117135l-3.799989,13.530016l3.061694,8.999824l8.807215,0l3.063632,-8.999824zm11.835967,-8.69198l0.025191,-15.304748l4.799884,-10.979786l0.023253,-0.686342c-2.914423,0.645969 -7.727871,1.717537 -8.065045,1.803329c-0.492196,0.121119 -8.97774,-0.486159 -8.97774,-0.486159l-3.228343,2.62593l1.699434,3.144051l5.460667,0.693071l-0.083325,0.47943l6.718287,0.857927c0.201529,0.023551 0.341049,0.19009 0.302294,0.363357l-2.693516,12.653585l-1.556038,7.305839c-0.029067,0.126166 -0.20928,0.257378 -0.354614,0.257378l-6.348171,0l1.649052,5.854091c0.003876,0.016822 -0.003876,0.254014 -0.009689,0.270836l-0.193778,0.558494l5.658321,0l5.173875,-9.410284zm-11.779771,-27.885998l7.553471,1.387823l9.049438,-5.529425l0.060071,-1.850431l-16.709486,4.525145l0.046507,1.466887zm13.851259,10.608017l4.379385,-9.921676l0,-0.12953l-0.889442,0.198501l-0.040693,1.016055l-4.799884,10.976421l0,10.300173l0,4.905325l-0.03488,0.139623l-1.959097,3.561239l0.858437,-1.547633c0.042631,-0.068971 0.234472,-0.17495 0.325547,-0.17495l0.860375,0l0,-6.883604l0,-9.332902l0.040693,-0.178314l1.259558,-2.928728zm6.869434,12.431533c0.790615,-5.955024 0.885566,-9.679437 0.893317,-9.733268l3.232219,-13.016942l0,-8.490115l-5.416098,1.461841l0,7.522844l-0.040693,0.181679l-4.416203,10.009151l-1.214989,2.837889l0,9.235334l0,16.928081l3.666282,0c1.680056,-6.516882 2.693516,-12.377702 3.296166,-16.936492zm22.745674,-27.904502l-0.401121,0c-0.193778,0 -0.364303,-0.14467 -0.364303,-0.312891l0,-3.088538l-0.618152,0l0,-2.553595l0.62009,0l0,-0.819236l-0.182151,-0.676248l-3.962762,-15.1769l-5.317271,-0.492888l-4.503403,3.895999l0.468943,0c0.294543,-0.028598 0.591023,-0.04542 0.889442,-0.04542c0.302294,0 0.60265,0.01514 0.897193,0.04542l6.487691,0c0.321672,0 0.604588,0.24392 0.604588,0.52485l0,5.359522l0,0.444103c0.019378,0.195136 0.031004,0.386908 0.031004,0.585409s-0.011627,0.391955 -0.031004,0.587091l0,4.279543l0,1.206145c0,0.052149 -0.129831,0.333078 -0.180214,0.370086l-2.736147,2.378645l0,13.762161c0,0.122801 -0.203467,0.408777 -0.329423,0.465972l-7.941027,3.532641c-0.715041,0.316256 -1.259558,-0.610642 -0.548392,-0.92858l0.317796,-0.14467l0,-19.220933c-0.858437,-0.354946 -1.635487,-0.84447 -2.298208,-1.42315c-1.412642,-1.259975 -2.278831,-2.972465 -2.278831,-4.868316c0,-0.351582 0.027129,-0.689706 0.083325,-1.024466l0,-0.003364c0.009689,-0.077382 0.029067,-0.161492 0.048445,-0.245603l-0.282916,0.245603l-3.542264,3.061623c-0.036818,0.033644 -0.350738,0.151399 -0.401121,0.151399l-5.336649,0.179996l-4.075154,2.499764l-1.933906,1.184276c-0.027129,0.018504 -0.313921,0.097568 -0.348801,0.097568l-3.72054,0l-4.658426,5.495781c0.269352,1.004279 0.623966,2.301264 0.897193,3.281992l26.446836,-7.156122c0.439876,-0.117755 0.782864,0.09925 0.782864,0.492888l-0.011627,9.371593l-3.236094,13.020307c-0.011627,0.460926 -0.143396,4.038987 -0.870064,9.565047l0,0.008411c-0.56777,4.281225 -1.488216,9.738315 -3.001623,15.824551c3.249659,-2.545184 6.481878,-6.50006 8.128992,-10.064663l1.284749,-5.759888l1.633549,-7.289017c-1.10066,0.452515 -2.228448,0.839423 -3.383366,1.152314c-0.767361,0.211958 -1.131664,-0.785592 -0.364303,-0.994186c1.461087,-0.400366 2.887294,-0.918487 4.296061,-1.56782c0.381743,-0.171585 0.763486,-0.358311 1.137477,-0.546718l0.242223,-0.124484l0.622028,-0.336442c4.668115,-2.607426 8.49717,-6.595946 10.932961,-11.435665l0.003876,0l0,-6.770896l0.001938,0zm-17.27338,-14.145705c0.579397,-2.122949 2.6722,-3.736189 5.220382,-3.959923c-0.162774,-0.03028 -0.329423,-0.055513 -0.499948,-0.067288l-1.645176,0c-0.912695,0.089157 -1.775007,0.343171 -2.581124,0.716622l-2.491986,2.190238c-0.39337,0.585409 -0.67241,1.238107 -0.81193,1.931177c-0.065885,0.338124 -0.102702,0.676248 -0.102702,1.024466c0,2.018652 1.168482,3.795066 2.939614,4.86327l0,0.003364c1.094846,0.65438 2.433853,1.044653 3.867811,1.044653c1.443647,0 2.778778,-0.390273 3.879438,-1.054746l0.009689,0c0.53289,-0.322984 1.009584,-0.709893 1.41458,-1.14895c-0.957264,0.56354 -2.116057,0.891571 -3.360112,0.891571c-0.635592,0 -1.238242,-0.084111 -1.806012,-0.24392l0.220907,-0.595502c0.494134,0.139623 1.021211,0.213641 1.581229,0.213641c2.918298,0 5.284329,-2.050614 5.284329,-4.585705c0,-0.142988 -0.007751,-0.280929 -0.023253,-0.41887c-0.246098,-2.341637 -2.509426,-4.170199 -5.261076,-4.170199c-2.493924,0 -4.582852,1.498849 -5.13512,3.512455l-0.699539,-0.146352zm10.679111,-1.8723l0,-2.156593l-2.478422,0c0.999895,0.546718 1.84283,1.281844 2.478422,2.156593zm-5.266889,22.839368l0,1.458476l-4.038336,0l0,0.437375c0,0.230463 0.20928,0.41887 0.48057,0.41887l3.827118,0c0.2616,0 0.476694,-0.188408 0.476694,-0.41887l0,-13.792441c-0.715041,0.185043 -1.472714,0.282611 -2.259453,0.282611c-0.877815,0 -1.730438,-0.124484 -2.524929,-0.354946l0,1.159043l4.038336,0l0,1.461841l-4.038336,0l0,0.699799l4.038336,0l0,1.461841l-4.038336,0l0,0.699799l4.038336,0l0,1.460158l-4.038336,0l0,0.699799l4.038336,0l0,1.460158l-4.038336,0l0,0.701482l4.038336,0l0,1.458476l-4.038336,0l0,0.703164l0,0.001682l4.038336,0l0,0.001682zm14.215562,-6.817998l-1.635487,0l0,5.216534c0.711166,-1.653613 1.263433,-3.401429 1.635487,-5.216534zm-12.626581,-24.47784c0.071698,0.215323 0.13952,0.452515 0.172463,0.666155l5.526552,0.588774c0.106578,0.006729 0.282916,0.148034 0.310045,0.240556l4.049962,15.533529l0.166649,0.637558l0,6.187169l2.521053,0c0.286792,-1.5981 0.439876,-3.253394 0.439876,-4.940651c0,-0.637558 -0.019378,-1.261658 -0.058133,-1.884075c-0.135645,-2.033792 -0.490259,-4.010389 -1.036713,-5.8911l0,-0.003364c-1.139415,-3.911139 -3.133392,-7.448827 -5.780401,-10.394377l-6.311353,-0.740172zm-0.575521,-5.561387l-1.472714,1.054746l0.955326,3.324047l5.404471,0.634193c-1.08322,-2.000148 -2.906672,-3.660489 -4.887084,-5.012986zm24.666015,-18.975331l-0.503823,-0.533261l-26.161982,18.734775l0.201529,0.703164l26.464276,-18.904678zm29.816637,-23.601409l-0.377867,-0.391955l-78.677787,55.484338l-0.166649,0.084111l-5.82497,1.905944l-0.199591,0.583727l6.096259,-2.015288l8.212316,4.126462c0.412747,0.210276 0.050382,0.750266 -0.362365,0.538307l-2.088928,-1.046335l-1.081282,-0.543354l-5.991619,-0.962224l-4.220487,1.50726l-1.255682,0.444103l-1.718812,5.135788l5.797841,0l5.995495,-3.680676c0.027129,-0.016822 0.298418,-0.095886 0.325547,-0.095886l5.280453,-0.178314l14.430656,-12.485364l-1.918403,-6.671646c-0.031004,-0.124484 0.089138,-0.445786 0.201529,-0.531578l57.544346,-41.207421zm-94.829192,46.496289l0,-2.518269c0,-0.200183 0.364303,-0.361675 0.817744,-0.361675c0.451503,0 0.817744,0.161492 0.817744,0.361675l0,2.518269c0,0.191772 -0.364303,0.353264 -0.817744,0.353264c-0.457316,0 -0.817744,-0.161492 -0.817744,-0.353264zm0.633654,-0.222052c0,0.042055 0.083325,0.079064 0.184089,0.079064c0.098827,0 0.182151,-0.038691 0.182151,-0.079064l0,-2.082576c0,-0.042055 -0.083325,-0.075699 -0.182151,-0.075699c-0.100765,0 -0.184089,0.033644 -0.184089,0.075699l0,2.082576zm-1.809888,0.575316c0.443752,0 0.809992,-0.161492 0.809992,-0.353264l0,-0.499616c0,-0.035326 -0.135645,-0.067288 -0.310045,-0.067288s-0.317796,0.033644 -0.317796,0.067288l0,0.2742c0,0.035326 -0.083325,0.075699 -0.182151,0.075699c-0.10464,0 -0.184089,-0.037009 -0.184089,-0.075699l0,-2.558642c0,-0.035326 -0.137582,-0.065606 -0.317796,-0.065606c-0.168587,0 -0.317796,0.03028 -0.317796,0.065606l0,2.784058c0.001938,0.191772 0.366241,0.353264 0.819681,0.353264zm29.551161,43.912414l-6.020686,-0.065606c-0.484445,-0.003364 -0.488321,0.6241 -0.007751,0.627464l6.018748,0.065606c0.48057,0.006729 0.490259,-0.620736 0.009689,-0.627464zm-55.918548,-12.690594l-3.584895,0c-0.48057,0 -0.48057,0.6241 0,0.6241l3.584895,0c0.48057,0 0.48057,-0.6241 0,-0.6241zm-6.524509,-18.280578c-0.011627,0.50971 -0.127894,1.000915 -0.321672,1.455112l0.678223,0.218687c0.217031,-0.516439 0.350738,-1.074932 0.366241,-1.660341l-0.722792,-0.013458zm68.188578,1.673799l0.680161,-0.218687c-0.199591,-0.455879 -0.310045,-0.945402 -0.321672,-1.455112l-0.722792,0.013458c0.009689,0.585409 0.145334,1.143903 0.364303,1.660341zm-30.773901,60.130603l-6.290037,0l-2.577249,-7.57331l1.734314,-6.170347c0.114329,-0.407095 -0.587148,-0.555129 -0.699539,-0.149717l-1.75563,6.254457l0.003876,0.163174l2.679951,7.879472c0.03488,0.100933 0.22672,0.222052 0.348801,0.222052l6.826803,0c0.120142,0 0.310045,-0.121119 0.344925,-0.222052l2.687702,-7.879472l0.005813,-0.163174l-1.759505,-6.254457c-0.112391,-0.405413 -0.813868,-0.257378 -0.693726,0.149717l1.718812,6.170347l-2.575311,7.57331zm-42.699006,-58.0127c-2.478422,0 -4.48015,-1.74277 -4.48015,-3.890952c0,-0.142988 0.003876,-0.280929 0.023253,-0.41887c0.242223,-1.951364 2.145124,-3.473764 4.458834,-3.473764s4.212736,1.5224 4.454959,3.473764l-0.726668,0c-0.019378,-0.124484 -0.040693,-0.235509 -0.071698,-0.344853l-0.203467,0.240556l0.067822,0.104297l0.238347,0.351582c-0.003876,-0.124484 -0.015502,-0.24392 -0.031004,-0.348218l0.726668,-0.003364c0.015502,0.137941 0.027129,0.275882 0.027129,0.41887c0,2.148182 -2.009479,3.890952 -4.484025,3.890952zm3.72054,-3.40984l-0.265476,0.402048l0.110454,0.161492c0.067822,-0.183361 0.124018,-0.370086 0.155022,-0.56354zm-0.496072,-0.891571l-0.389494,0l-0.39337,0l-0.389494,0.588774l0.389494,0.588774l0.39337,0l0.385618,0l0.39337,-0.588774l-0.389494,-0.588774zm-2.185817,0.474383l0.39337,0l0.385618,0l0.329423,-0.482794l0.063947,-0.102615l-0.389494,-0.588774l-0.389494,0l-0.39337,0l-0.389494,0.588774l0.067822,0.102615l0.321672,0.482794zm-0.622028,-0.469337l-0.39337,0l-0.389494,0l-0.389494,0.588774l0.389494,0.588774l0.389494,0l0.389494,0l0.397245,-0.588774l-0.39337,-0.588774zm1.792447,-1.524082l-0.389494,-0.590456l-0.389494,0l-0.39337,0l-0.389494,0.590456l0.389494,0.587091l0.39337,0l0.385618,0l0.39337,-0.587091zm-1.792447,0.116073l-0.39337,0l-0.389494,0l-0.389494,0.587091l0.389494,0.588774l0.389494,0l0.389494,0l0.397245,-0.588774l-0.39337,-0.587091zm-1.011522,-0.112708l-0.39337,-0.587091l-0.39337,0l-0.389494,0l-0.389494,0.587091l0.389494,0.587091l0.389494,0l0.389494,0l0.397245,-0.587091zm-1.176233,0.819236l-0.389494,0.588774l0.063947,0.09925l0.325547,0.486159l0.389494,0l0.389494,0l0.329423,-0.486159l0.067822,-0.09925l-0.39337,-0.588774l-0.39337,0l-0.389494,0zm-0.622028,0.704846l-0.389494,0l-0.39337,0l-0.389494,0.588774l0.389494,0.588774l0.39337,0l0.389494,0l0.389494,-0.588774l-0.389494,-0.588774zm0.232534,1.291937l0.389494,0.583727l0.389494,0l0.389494,0l0.397245,-0.583727l-0.39337,-0.588774l-0.39337,0l-0.389494,0l-0.389494,0.588774zm1.404891,0.701482l0.389494,0.587091l0.389494,0l0.389494,0l0.397245,-0.587091l-0.39337,-0.590456l-0.39337,0l-0.389494,0l-0.389494,0.590456zm1.794385,-0.121119l0.39337,0l0.385618,0l0.391432,-0.587091l-0.389494,-0.585409l-0.389494,0l-0.39337,0l-0.389494,0.585409l0.391432,0.587091zm1.796323,-3.287039l-0.39337,0l-0.389494,0.587091l0.389494,0.588774l0.39337,0l0.385618,0l0.317796,-0.474383c-0.102702,-0.250649 -0.242223,-0.484477 -0.408872,-0.701482l-0.294543,0zm-0.734419,-0.894936l0.341049,0.666155l0.39337,0l0.098827,0c-0.238347,-0.255696 -0.51545,-0.482794 -0.833246,-0.666155zm-1.364198,-0.492888l0.302294,0.457561l0.39337,0l0.385618,0l0.060071,-0.087475c-0.352676,-0.176632 -0.738295,-0.301116 -1.141353,-0.370086zm-1.102597,-0.01514l-0.389494,0.590456l0.389494,0.585409l0.389494,0l0.389494,0l0.397245,-0.585409l-0.39337,-0.590456l-0.39337,0l-0.389494,0zm-1.472714,0.368404l0.457316,0.104297l0.389494,0l0.317796,-0.465972c-0.414685,0.063924 -0.809992,0.188408 -1.164606,0.361675zm-1.075468,0.787274l0.523201,0.023551l0.389494,-0.582045l-0.067822,-0.102615c-0.317796,0.176632 -0.60265,0.407095 -0.844873,0.661109zm-0.604588,0.91344l0.344925,0.518121l0.39337,0l0.389494,0l0.389494,-0.587091l-0.389494,-0.592138l-0.389494,0l-0.348801,0c-0.158898,0.208594 -0.288729,0.427281 -0.389494,0.661109zm-0.207343,0.731761c-0.019378,0.134577 -0.031004,0.272518 -0.031004,0.41887l0.290667,-0.41887l0.060071,-0.095886l-0.222845,-0.341489c-0.046507,0.14467 -0.075573,0.28934 -0.098827,0.430646l-0.53289,0.006729l0.534828,0zm0.184089,1.513989l0.135645,-0.201865l-0.325547,-0.491205c0.038756,0.240556 0.098827,0.471019 0.189903,0.693071zm0.746046,1.081661l0.404996,0l0.387556,-0.587091l-0.389494,-0.587091l-0.389494,0l-0.39337,0l-0.238347,0.363357c0.158898,0.297751 0.368178,0.571951 0.618152,0.810825zm0.470881,0.385226l-0.067822,-0.151399l-0.135645,0l0.203467,0.151399zm1.333193,0.31962l0.397245,-0.587091l-0.39337,-0.585409l-0.39337,0l-0.389494,0l-0.389494,0.585409l0.389494,0.587091l0.389494,0l0.389494,0zm1.802136,0.116073l-0.39337,-0.590456l-0.39337,0l-0.389494,0l-0.389494,0.590456l0.147271,0.222052c0.199591,0.03028 0.401121,0.043737 0.612339,0.043737c0.222845,0 0.447627,-0.01514 0.662721,-0.050466l0.143396,-0.215323zm1.399078,-0.703164l-0.389494,-0.592138l-0.389494,0l-0.39337,0l-0.389494,0.592138l0.389494,0.583727l0.39337,0l0.344925,0l0.434063,-0.583727zm0.594899,-0.122801c0.2616,-0.252332 0.472819,-0.538307 0.635592,-0.851198l-0.215094,-0.324667l-0.389494,0l-0.39337,0l-0.389494,0.590456l0.389494,0.587091l0,-0.001682l0.362365,0zm-0.893317,2.097716l0.2616,0.585409c0.389494,-0.134577 0.765424,-0.299433 1.123913,-0.497934l-0.381743,-0.526532c-0.325547,0.17495 -0.658846,0.324667 -1.003771,0.439057zm1.650989,-0.894936l0.492196,0.457561c0.401121,-0.328031 0.757672,-0.699799 1.052215,-1.115305l-0.616214,-0.324667c-0.257725,0.363357 -0.571645,0.694753 -0.928197,0.982411zm7.830573,28.325055l6.020686,-0.065606c0.484445,-0.003364 0.476694,-0.630829 -0.003876,-0.627464l-6.024561,0.065606c-0.48057,0.005047 -0.472819,0.632511 0.007751,0.627464zm5.264951,-26.78415l0.015502,0.082428l0.021316,0l-0.036818,-0.082428zm57.966783,-4.915418c0,-0.142988 0.013564,-0.280929 0.032942,-0.41887c0.238347,-1.951364 2.13931,-3.473764 4.454959,-3.473764c2.311773,0 4.212736,1.5224 4.454959,3.473764c0.015502,0.137941 0.027129,0.275882 0.027129,0.41887c0,2.148182 -2.005603,3.890952 -4.48015,3.890952c-2.48036,0 -4.484025,-1.74277 -4.489839,-3.890952zm3.453126,2.878262l0.385618,-0.583727l-0.385618,-0.592138l-0.39337,0l-0.39337,0l-0.39337,0.592138l0.443752,0.583727l0.344925,0l0.391432,0zm0.62009,-1.879029l-0.389494,0.590456l0.39337,0.587091l0.385618,0l0.39337,0l0.391432,-0.585409l-0.391432,-0.590456l-0.39337,0l0,-0.001682l-0.389494,0zm0.003876,-0.227098l0.385618,0l0.39337,0l0.391432,-0.588774l-0.391432,-0.588774l-0.39337,0l-0.389494,0l-0.389494,0.588774l0.39337,0.588774zm1.402953,0.701482l0.385618,0l0.387556,0l0.39337,-0.583727l-0.39337,-0.588774l-0.387556,0l-0.389494,0l-0.389494,0.588774l0.39337,0.583727zm1.39714,-0.699799l0.39337,0l0.389494,0l0.389494,-0.588774l-0.389494,-0.588774l-0.387556,0l-0.39337,0l-0.389494,0.588774l0.387556,0.588774zm-0.230596,-1.291937l-0.39337,-0.588774l-0.387556,0l-0.389494,0l-0.389494,0.588774l0.060071,0.09925l0.333298,0.486159l0.385618,0l0.387556,0l0.331361,-0.486159l0.062009,-0.09925zm-0.39337,-0.820919l0.39337,-0.587091l-0.39337,-0.587091l-0.387556,0l-0.389494,0l-0.389494,0.587091l0.39337,0.587091l0.385618,0l0.387556,0zm-1.395202,-0.474383l-0.395307,0l-0.389494,0l-0.389494,0.587091l0.39337,0.588774l0.385618,0l0.39337,0l0.391432,-0.588774l-0.389494,-0.587091zm-1.017335,-0.116073l-0.385618,-0.590456l-0.39337,0l-0.391432,0l-0.39337,0.590456l0.39337,0.587091l0.391432,0l0.39337,0l0.385618,-0.587091zm-1.17042,0.819236l-0.39337,0.588774l0.071698,0.102615l0.321672,0.482794l0.391432,0l0.39337,0l0.321672,-0.482794l0.063947,-0.102615l-0.385618,-0.588774l-0.39337,0l-0.391432,0zm-0.625903,0.701482l-0.389494,0l-0.395307,0l-0.385618,0.588774l0.389494,0.588774l0.391432,0l0.389494,0l0.389494,-0.588774l-0.389494,-0.588774zm0.230596,1.291937l0.39337,0.587091l0.391432,0l0.39337,0l0.385618,-0.585409l-0.385618,-0.585409l-0.39337,0l-0.391432,0l-0.39337,0.583727zm2.974494,2.114538l-0.391432,-0.590456l-0.395307,0l-0.389494,0l-0.389494,0.590456l0.13952,0.215323c0.215094,0.033644 0.436001,0.050466 0.666597,0.050466c0.207343,0 0.41081,-0.011775 0.608463,-0.043737l0.151147,-0.222052zm1.39714,-0.703164l-0.39337,-0.585409l-0.387556,0l-0.389494,0l-0.389494,0.585409l0.39337,0.587091l0.385618,0l0.387556,0l0.39337,-0.587091zm1.259558,-0.92858l-0.242223,-0.363357l-0.387556,0l-0.39337,0l-0.389494,0.587091l0.389494,0.587091l0.401121,0c0.251912,-0.238874 0.459254,-0.513074 0.622028,-0.810825zm0.313921,-0.963906l-0.325547,0.491205l0.129831,0.201865c0.093013,-0.222052 0.158898,-0.452515 0.195716,-0.693071zm-0.100765,-1.258293l-0.222845,0.341489l0.060071,0.095886l0.290667,0.41887c0,-0.146352 -0.007751,-0.284294 -0.032942,-0.422235c-0.023253,-0.148034 -0.05232,-0.28934 -0.094951,-0.43401zm-0.84681,-0.957178l-0.39337,0l-0.391432,0.592138l0.39337,0.587091l0.39337,0l0.387556,0l0.346863,-0.518121c-0.10464,-0.232145 -0.234472,-0.450832 -0.389494,-0.661109l-0.346863,0zm-0.718917,-0.911758l0.325547,0.682977l0.525139,-0.023551c-0.240285,-0.252332 -0.527076,-0.482794 -0.850686,-0.659426zm-1.391327,-0.487841l0.317796,0.465972l0.385618,0l0.459254,-0.104297c-0.352676,-0.173268 -0.744108,-0.297751 -1.162669,-0.361675zm-1.089033,-0.008411l-0.389494,0.590456l0.39337,0.585409l0.385618,0l0.39337,0l0.391432,-0.583727l-0.391432,-0.590456l-0.39337,0l0,-0.001682l-0.389494,0zm-1.461087,0.386908l0.447627,0.087475l0.39337,0l0.296481,-0.457561c-0.403058,0.068971 -0.790615,0.193454 -1.137477,0.370086zm-1.059966,0.788957l0.492196,0l0.342987,-0.667837c-0.313921,0.185043 -0.592961,0.412141 -0.835184,0.667837zm-0.60265,0.931944l0.313921,0.474383l0.391432,0l0.389494,0l0.389494,-0.588774l-0.389494,-0.587091l-0.389494,0l-0.292605,0c-0.1744,0.215323 -0.310045,0.44915 -0.412747,0.701482zm-0.224783,1.046335l0.238347,-0.351582l0.067822,-0.104297l-0.203467,-0.240556c-0.029067,0.109344 -0.050382,0.22037 -0.067822,0.348218l-0.003876,0c-0.013564,0.107661 -0.019378,0.223734 -0.031004,0.348218zm0.308107,0.950449l-0.267414,-0.402048c0.032942,0.193454 0.089138,0.381862 0.155022,0.56354l0.112391,-0.161492zm0.013564,0.440739c0.162774,0.312891 0.377867,0.600549 0.635592,0.851198l0.364303,0l0.389494,-0.587091l-0.389494,-0.590456l-0.389494,0l-0.395307,0l-0.215094,0.326349zm-8.369276,17.680029l3.582957,0c0.484445,0 0.484445,-0.6241 0,-0.6241l-3.582957,0c-0.48057,0 -0.48057,0.6241 0,0.6241zm7.755,-15.171854l0.496072,-0.457561c-0.356552,-0.287658 -0.674348,-0.619053 -0.928197,-0.982411l-0.610401,0.324667c0.288729,0.415506 0.645281,0.787274 1.042526,1.115305zm0.755735,0.52485c0.364303,0.198501 0.738295,0.363357 1.127789,0.497934l0.265476,-0.585409c-0.352676,-0.11439 -0.685974,-0.264107 -1.009584,-0.440739l-0.383681,0.528214zm-59.162394,0.057195l0.015502,0.016822l-0.038756,-0.262425l0.023253,0.245603z" fill="#000000"/>
 </g>
</svg>