<?xml version="1.0" standalone="no"?>
<!DOCTYPE svg PUBLIC "-//W3C//DTD SVG 20010904//EN"
 "http://www.w3.org/TR/2001/REC-SVG-20010904/DTD/svg10.dtd">
<svg version="1.0" xmlns="http://www.w3.org/2000/svg"
 width="310px" height="310px" viewBox="0 0 912.000000 654.000000"
 preserveAspectRatio="xMidYMid meet">

<g transform="translate(0.000000,654.000000) scale(0.100000,-0.100000)"
fill="#000000" stroke="none">
<path d="M1863 6285 c-53 -37 -38 -137 38 -261 59 -98 178 -398 186 -471 7
-63 -10 -111 -44 -124 -34 -13 -65 3 -113 60 -66 78 -120 85 -160 19 -25 -41
-26 -104 -1 -143 10 -16 39 -51 65 -78 58 -60 60 -89 11 -137 -36 -34 -68
-110 -64 -152 5 -54 2 -58 -49 -58 -26 0 -86 11 -132 24 -47 13 -107 27 -134
31 -198 27 -698 293 -887 471 -46 43 -78 65 -102 69 -100 19 -189 -75 -149
-157 22 -44 71 -74 140 -89 145 -29 391 -149 677 -328 287 -180 365 -244 365
-300 0 -64 -85 -95 -293 -106 -143 -8 -157 -14 -157 -73 0 -84 66 -122 210
-122 81 0 104 4 155 27 78 35 146 37 177 5 21 -20 23 -34 29 -175 7 -163 19
-212 60 -241 26 -18 75 -21 113 -6 24 9 26 7 35 -28 23 -90 22 -126 -4 -212
-36 -122 -82 -299 -90 -343 -6 -36 -7 -38 -39 -31 -109 20 -170 -116 -169
-376 1 -224 37 -361 118 -443 44 -45 78 -60 116 -52 26 6 29 2 77 -97 27 -57
63 -123 80 -147 l30 -45 -33 -40 c-18 -23 -40 -56 -50 -75 -16 -33 -16 -34 16
-100 72 -146 235 -265 432 -313 l88 -21 35 34 c20 19 58 65 86 102 37 50 55
66 67 62 47 -19 242 -65 321 -76 l90 -13 -6 -101 -7 -101 54 -16 c174 -55 360
-49 489 17 55 28 54 25 55 159 l0 59 105 23 c58 13 131 33 164 44 32 11 62 17
66 15 4 -3 11 -22 15 -42 3 -21 13 -49 22 -62 15 -23 18 -23 110 -17 166 13
290 53 418 138 54 35 65 47 65 70 0 29 -5 28 140 43 30 3 70 8 88 11 24 5 32
3 32 -9 0 -21 22 -27 124 -33 64 -4 113 -1 166 10 140 30 273 115 263 169 -4
21 0 25 27 31 18 3 64 6 102 6 l70 0 -6 -35 c-6 -32 -4 -37 36 -66 97 -70 182
-100 285 -101 57 0 65 2 84 27 26 32 40 30 138 -19 148 -74 215 -120 228 -156
18 -52 15 -163 -6 -291 -30 -173 -33 -215 -26 -269 7 -51 36 -105 67 -124 30
-18 71 4 96 54 27 55 28 102 2 205 -27 106 -37 270 -20 330 7 25 14 45 17 45
2 0 40 -18 85 -41 153 -77 347 -130 530 -145 l87 -7 24 -61 c51 -128 64 -194
77 -384 10 -152 -2 -391 -26 -505 -21 -103 -19 -221 7 -273 35 -73 137 -95
208 -45 75 54 102 245 62 436 -45 212 -52 262 -52 405 0 140 9 264 32 400 l10
66 72 18 c99 26 214 76 288 125 l62 42 39 -16 c21 -8 44 -15 51 -15 21 0 155
128 209 199 59 78 124 209 134 268 7 45 -10 83 -69 149 -26 31 -27 35 -14 61
8 15 22 52 31 80 l17 53 58 -6 57 -6 37 78 c54 116 77 218 77 338 -1 68 -6
117 -18 151 l-17 50 -88 16 c-48 9 -89 18 -90 20 -1 2 -12 45 -25 94 -13 53
-45 136 -77 200 l-54 110 25 26 25 26 -21 56 c-24 63 -90 158 -139 200 -36 30
-52 29 -130 -4 -26 -11 -53 -17 -65 -13 -12 4 -66 15 -121 24 l-100 18 116 1
116 1 80 45 c76 43 80 48 114 116 l34 71 57 -6 57 -6 29 63 c16 34 39 93 52
130 12 38 24 67 26 64 4 -4 -20 -147 -40 -231 l-14 -59 34 -35 c18 -19 36 -43
39 -53 4 -11 10 -19 14 -19 14 0 68 177 97 315 26 120 28 148 28 365 1 316
-21 463 -68 447 -6 -2 -14 -28 -18 -58 -22 -167 -31 -226 -39 -239 -5 -10 -9
2 -9 35 -1 128 -72 321 -172 469 -46 67 -114 136 -134 136 -19 0 -18 -6 15
-53 31 -46 74 -129 86 -165 4 -16 -24 8 -82 65 -79 80 -98 93 -185 132 -54 23
-130 49 -170 57 -86 18 -219 23 -224 9 -2 -5 43 -34 100 -63 57 -29 124 -70
147 -92 l44 -40 -47 20 c-144 59 -294 85 -425 75 -69 -6 -83 -10 -81 -23 2
-10 26 -23 63 -34 71 -22 81 -30 60 -48 -11 -9 -44 -13 -108 -11 -84 1 -199
-10 -253 -25 -18 -5 -20 -2 -16 25 3 22 0 33 -12 37 -17 7 -126 -27 -199 -62
-42 -20 -48 -21 -41 -6 19 43 16 97 -8 132 -38 56 -82 53 -150 -8 -66 -59 -98
-117 -98 -177 0 -29 6 -60 15 -72 14 -20 11 -24 -58 -79 -39 -31 -89 -73 -109
-92 l-37 -35 -93 27 c-51 14 -97 26 -103 26 -5 0 -28 6 -50 12 l-40 12 39 6
c45 6 58 24 24 34 -51 13 -259 6 -355 -13 -98 -19 -218 -59 -260 -87 -21 -13
-27 -12 -72 20 -80 55 -330 153 -360 141 -13 -5 -9 -12 19 -35 l35 -30 -32 12
c-18 7 -35 9 -39 5 -4 -3 30 -43 75 -87 44 -45 81 -86 81 -91 0 -5 -23 9 -51
31 -114 90 -281 162 -429 184 -47 8 -78 16 -70 19 8 3 35 11 60 19 54 16 66
43 23 55 -15 4 -143 8 -283 8 -198 -1 -271 -4 -325 -17 l-70 -16 -37 34 c-78
70 -106 82 -209 89 l-97 7 -5 31 c-3 25 2 37 29 62 18 17 36 43 39 57 16 62
-63 148 -136 148 -31 0 -42 -7 -87 -59 -64 -73 -97 -88 -155 -72 -23 7 -117
50 -208 96 -190 95 -260 119 -331 113 -60 -6 -92 -33 -124 -104 -32 -72 -67
-88 -207 -92 -100 -4 -112 -2 -162 23 -44 21 -63 39 -101 96 -68 104 -151 303
-189 455 -34 139 -51 174 -91 192 -34 16 -55 15 -81 -3z m1326 -1145 c83 -16
190 -71 257 -133 150 -139 215 -409 143 -602 -40 -110 -44 -105 -44 59 0 152
-12 224 -49 307 l-15 34 7 -40 c13 -71 6 -256 -13 -330 -20 -85 -100 -252
-151 -319 l-37 -49 33 7 c126 25 237 10 350 -46 77 -39 183 -141 222 -213 15
-28 39 -91 54 -140 25 -82 28 -105 28 -250 l1 -161 -39 -79 c-29 -59 -58 -99
-110 -150 -167 -166 -345 -237 -636 -255 -165 -9 -228 -23 -323 -72 -33 -16
-66 -26 -77 -23 -23 7 -139 81 -166 106 l-21 20 23 46 c38 73 39 101 9 235
-52 239 -226 888 -336 1253 -17 55 -33 108 -35 117 -3 9 -21 27 -41 40 -20 13
-40 26 -45 29 -16 11 47 234 99 352 29 64 21 59 198 129 145 58 268 98 365
118 95 21 268 26 349 10z m1426 -71 c355 -49 632 -291 726 -636 29 -105 32
-294 5 -407 -76 -327 -322 -575 -647 -653 -98 -23 -299 -23 -386 0 -90 24
-224 77 -228 90 -2 7 -6 33 -10 59 l-6 46 59 -28 c116 -57 201 -74 367 -74
205 0 314 31 462 132 63 43 156 122 150 128 -2 2 -39 -12 -83 -31 -148 -64
-246 -87 -384 -91 -95 -2 -113 -1 -76 6 114 21 245 78 323 142 63 53 65 63 6
37 -165 -71 -428 -100 -589 -64 -151 33 -314 126 -383 218 -94 126 -125 227
-125 417 -1 74 2 150 6 168 18 77 -27 4 -78 -128 l-24 -65 6 68 c7 80 35 188
66 254 53 114 187 243 328 317 170 89 338 120 515 95z m2909 -9 c100 -25 165
-61 242 -133 105 -97 174 -259 174 -407 0 -230 -158 -445 -380 -520 -69 -23
-182 -34 -235 -23 -54 12 -55 33 -11 132 42 91 41 89 19 113 -36 40 -123 15
-241 -69 l-66 -47 -42 49 c-117 132 -164 307 -130 480 23 115 66 196 150 280
143 142 329 194 520 145z m-1386 -166 c271 -56 477 -245 564 -519 28 -86 35
-286 14 -385 -31 -150 -139 -324 -261 -423 -95 -76 -150 -99 -252 -103 -84 -4
-86 -4 -48 9 173 58 330 199 417 375 23 45 39 84 37 87 -3 2 -24 -24 -46 -58
-87 -133 -222 -241 -346 -279 -56 -17 -86 -20 -156 -15 -47 3 -97 10 -111 15
-20 9 -11 11 51 11 42 1 98 5 125 10 51 10 129 39 122 46 -2 2 -37 0 -77 -6
-186 -23 -465 52 -580 156 -23 21 -43 36 -45 34 -7 -8 25 -114 54 -173 16 -34
52 -85 80 -113 l52 -52 -54 15 c-70 21 -79 26 -121 73 -101 112 -148 283 -122
442 22 140 -8 421 -55 510 -12 21 29 80 103 151 176 168 421 240 655 192z
m-3927 -771 c-72 -116 -191 -398 -191 -450 0 -8 29 18 65 55 35 38 99 98 142
133 l78 63 -45 -49 c-70 -77 -113 -133 -163 -215 -45 -74 -111 -219 -103 -227
2 -3 17 15 34 39 41 60 166 176 232 217 l55 33 -71 -73 c-104 -109 -191 -238
-233 -346 l-21 -53 93 93 c88 90 143 131 252 191 41 22 45 23 25 6 -81 -71
-121 -109 -173 -169 -33 -36 -63 -65 -69 -63 -5 1 -7 -1 -5 -6 3 -4 -14 -39
-39 -77 -24 -39 -44 -74 -44 -79 0 -5 24 13 53 40 58 56 147 120 252 184 l69
42 -108 -103 c-59 -56 -127 -128 -150 -158 -42 -55 -106 -156 -106 -167 0 -3
19 8 43 24 23 16 72 48 109 70 l66 41 -44 -94 c-70 -148 -96 -260 -102 -449
-3 -116 -1 -157 7 -152 6 4 11 15 12 24 0 9 10 48 22 86 l22 69 19 -92 c10
-51 21 -89 24 -86 3 3 8 38 9 78 2 40 10 97 17 127 l14 55 1 -40 c2 -41 25
-163 33 -171 3 -2 8 40 11 93 10 147 49 273 106 343 l21 25 0 -86 c0 -178 46
-347 131 -486 l23 -38 -39 29 c-22 16 -57 45 -77 65 -44 41 -47 32 -14 -43 29
-65 71 -128 116 -173 l32 -33 -43 15 c-24 9 -68 29 -97 46 -30 17 -56 28 -60
25 -3 -3 19 -28 49 -56 129 -120 308 -218 486 -267 91 -25 112 -27 298 -27
166 0 219 4 310 22 149 29 267 71 407 142 142 73 178 79 453 80 105 1 224 4
265 9 41 4 136 5 210 2 l135 -6 -65 -17 c-150 -39 -424 -68 -646 -68 l-123 0
-98 -46 c-287 -133 -575 -191 -906 -181 -244 7 -471 51 -610 117 l-37 18 -27
-46 c-15 -26 -47 -71 -71 -101 -43 -51 -47 -53 -84 -48 -21 3 -73 21 -115 41
-108 52 -175 107 -244 200 -27 36 -28 40 -13 67 8 16 44 65 79 109 36 44 61
80 56 80 -5 0 -25 -7 -46 -16 -20 -8 -38 -14 -39 -12 -19 26 -83 141 -108 193
l-31 68 21 16 c11 9 36 27 55 41 57 41 86 92 106 185 11 47 15 87 10 90 -4 3
-11 -5 -15 -19 -3 -13 -14 -32 -25 -42 -18 -17 -19 -16 -19 20 0 20 -8 69 -17
109 l-17 72 -8 -50 c-30 -170 -70 -268 -137 -328 -25 -22 -51 -37 -66 -37 -55
0 -102 87 -125 231 -14 90 -8 365 9 422 l12 37 57 0 c45 0 73 -8 132 -36 41
-19 83 -43 93 -51 9 -9 17 -11 17 -6 0 19 -64 90 -107 119 -36 25 -41 33 -36
59 42 251 115 450 227 619 53 80 174 221 183 212 2 -2 -9 -26 -26 -53z m5043
15 c-4 -13 -19 -41 -34 -63 -97 -143 -103 -234 -18 -310 38 -35 145 -91 155
-82 2 3 -10 20 -28 38 -51 55 -78 138 -32 97 21 -18 86 -52 122 -63 24 -7 23
-6 -8 31 l-32 39 170 9 c133 7 186 6 243 -5 72 -14 73 -14 70 -44 l-4 -29 39
36 c22 19 61 43 87 53 l47 18 32 -31 c18 -17 47 -56 66 -86 l33 -55 -20 -33
c-12 -18 -32 -44 -46 -57 -30 -29 -34 -46 -7 -32 21 12 30 2 69 -75 24 -46 72
-182 71 -198 0 -6 -9 13 -20 43 -10 29 -27 60 -36 68 -10 8 -12 11 -5 8 11 -6
12 -3 3 13 -18 33 -71 72 -99 72 -40 0 -91 -40 -102 -80 -12 -42 -13 -80 -2
-80 4 0 8 -12 7 -27 0 -23 5 -29 30 -33 23 -5 15 -7 -35 -12 -36 -3 -80 -12
-99 -19 -32 -14 -31 -14 46 -14 67 0 85 -4 124 -27 43 -25 58 -43 65 -75 1 -7
-3 -13 -9 -13 -6 0 -2 -6 9 -14 10 -8 16 -18 11 -22 -4 -4 -7 -1 -7 7 0 11 -2
11 -10 -1 -8 -13 -10 -12 -10 3 0 9 -8 17 -17 18 -15 0 -15 2 -3 7 26 12 17
36 -17 45 -25 8 -38 6 -58 -7 -14 -9 -24 -22 -22 -29 1 -6 -4 -11 -11 -9 -17
3 -27 -27 -14 -40 8 -8 9 -4 5 13 -5 20 -3 22 8 12 15 -15 33 -17 24 -4 -3 5
0 13 6 17 8 4 9 3 5 -4 -5 -8 0 -12 13 -12 11 0 33 -11 48 -25 15 -14 21 -24
13 -23 -8 2 -22 12 -30 22 -23 26 -62 15 -92 -27 -18 -25 -23 -45 -23 -94 0
-33 -3 -56 -7 -50 -14 22 -8 93 11 130 10 20 15 37 11 37 -19 0 -50 -112 -50
-177 0 -60 1 -64 17 -52 14 12 16 12 8 0 -5 -9 -2 -19 10 -28 11 -7 14 -13 9
-13 -6 0 -15 5 -22 12 -23 23 -12 -1 12 -27 15 -16 30 -24 37 -19 7 4 9 3 6
-2 -9 -16 -106 -15 -136 1 -16 8 -44 32 -63 54 l-34 40 4 -58 c4 -50 0 -68
-27 -123 -33 -70 -116 -200 -150 -235 -27 -28 -26 -32 2 -26 15 3 18 2 9 -5
-9 -6 5 -11 47 -15 96 -8 170 -59 186 -128 6 -26 5 -26 -57 -33 -35 -4 -76
-10 -93 -14 l-30 -6 35 -8 c30 -6 28 -6 -12 -4 -26 2 -46 0 -43 -4 3 -4 -4
-10 -15 -13 -12 -3 -18 -1 -14 5 9 15 -39 -13 -54 -31 -11 -13 -12 -13 -7 -1
4 8 -3 4 -16 -10 -13 -14 -20 -19 -14 -10 5 8 -11 -5 -37 -29 -26 -25 -45 -48
-42 -52 2 -4 -2 -10 -8 -12 -8 -3 -5 -6 6 -6 12 -1 16 4 12 14 -8 21 1 19 13
-3 7 -14 6 -19 -5 -20 -7 -1 -21 -3 -29 -4 -8 -1 -15 -5 -15 -10 0 -5 11 -6
23 -4 13 2 30 0 38 -5 8 -5 -7 -7 -40 -4 -68 6 -105 38 -126 109 -21 69 -19
105 9 159 13 26 22 47 21 47 -2 0 -41 -18 -87 -40 -190 -91 -369 -103 -618
-40 -138 34 -435 95 -518 106 -77 10 -51 23 53 26 l90 3 -55 13 c-30 7 -65 19
-77 27 -12 8 -57 25 -100 37 -68 20 -101 23 -258 23 l-180 0 65 17 c36 9 79
17 95 18 17 0 48 7 70 14 22 8 58 12 79 10 22 -2 43 0 46 5 3 6 30 13 59 17
48 6 54 5 48 -9 -5 -12 -1 -17 13 -17 13 0 20 7 20 20 0 16 7 20 33 21 17 0
50 3 72 8 l40 7 -67 23 c-89 30 -219 60 -290 68 -52 5 -57 8 -61 32 -4 26 -4
26 -12 4 -8 -24 -33 -29 -91 -17 -27 5 -29 9 -26 44 7 69 -3 77 -21 18 l-18
-58 -64 0 -65 0 0 81 c0 98 -14 96 -31 -6 -14 -82 -12 -80 -100 -84 -65 -3
-62 -8 -75 144 -9 112 -22 87 -31 -60 -3 -63 -10 -102 -17 -102 -6 0 -34 -4
-62 -8 l-51 -7 -22 83 c-38 143 -41 144 -38 16 l2 -118 -40 -10 c-22 -6 -55
-15 -74 -21 -41 -13 -41 -12 -78 100 -27 82 -49 110 -39 50 3 -18 7 -69 8
-112 l3 -80 -46 -17 -46 -18 -12 38 c-6 21 -14 59 -17 85 -10 70 -24 55 -25
-26 l-1 -73 -14 50 c-8 28 -18 97 -22 155 l-7 105 -23 -49 c-28 -62 -62 -171
-62 -201 0 -13 -4 -27 -10 -30 -5 -3 -10 -34 -11 -68 l-1 -62 -19 42 c-22 49
-49 210 -49 300 0 34 -4 64 -9 67 -10 7 -44 -94 -61 -182 -8 -37 -11 -105 -8
-166 4 -99 4 -105 -16 -110 -38 -10 -44 -6 -69 47 -35 75 -39 96 -46 252 l-6
140 -41 -62 c-58 -88 -79 -169 -71 -284 l6 -91 -23 31 c-85 115 -45 396 74
511 55 53 123 92 222 126 39 13 73 24 74 24 2 0 -4 -23 -12 -51 -17 -58 -13
-88 7 -46 31 66 307 237 487 301 350 125 760 125 1006 0 92 -47 185 -117 262
-196 76 -78 149 -171 137 -175 -4 -2 -38 5 -75 16 -37 10 -65 14 -62 9 18 -28
305 -150 454 -191 252 -71 537 -75 648 -10 153 90 261 272 262 439 0 59 -5 81
-31 132 -32 64 -86 119 -147 148 -19 9 -83 25 -141 34 -58 10 -115 22 -125 26
-13 5 -17 4 -12 -4 12 -19 108 -69 189 -98 58 -20 85 -35 102 -59 30 -39 55
-97 55 -127 0 -18 -5 -14 -19 17 -25 55 -44 69 -137 103 -147 54 -233 102
-305 172 -57 55 -70 75 -85 125 -42 145 37 310 216 452 62 49 96 57 84 21z
m835 -658 c-10 -7 -49 -2 -49 5 0 2 14 3 31 3 17 -1 25 -4 18 -8z m71 -46 c0
-2 -5 -6 -12 -10 -7 -4 -8 -3 -4 4 10 16 -6 15 -24 0 -12 -11 -12 -10 -2 4 9
11 10 18 2 23 -5 3 -10 10 -10 16 0 5 11 -1 25 -13 14 -12 25 -23 25 -24z
m-129 27 c-11 -7 -7 -12 15 -25 16 -8 24 -15 19 -16 -6 0 -21 7 -33 16 -13 9
-25 14 -26 13 -2 -2 -8 -13 -14 -24 -10 -17 -11 -17 -12 -3 0 17 35 48 55 48
5 0 4 -4 -4 -9z m72 -28 c-5 -14 -6 -14 -53 26 -3 2 3 1 12 -2 10 -3 20 -1 24
5 9 14 24 -11 17 -29z m97 -104 c0 -5 -4 -9 -10 -9 -5 0 -10 7 -10 16 0 8 5
12 10 9 6 -3 10 -10 10 -16z m-196 0 c-4 -8 1 -9 17 -4 13 4 21 4 17 0 -4 -4
-18 -9 -32 -10 -18 -2 -23 1 -19 11 3 8 9 14 15 14 5 0 6 -5 2 -11z m66 -19
c-12 -8 -12 -10 -1 -10 8 0 12 -2 9 -5 -3 -3 -13 -2 -22 1 -14 5 -15 9 -4 15
7 5 18 9 23 9 6 0 3 -5 -5 -10z m-3 -36 c-10 -10 45 -49 63 -46 12 3 12 1 3
-9 -9 -9 -19 -6 -43 15 -17 14 -36 26 -41 26 -6 0 -7 5 -4 10 3 6 11 10 17 10
6 0 8 -3 5 -6z m173 -16 c0 -16 -3 -19 -11 -11 -6 6 -8 16 -5 22 11 17 16 13
16 -11z m-115 -8 c3 -5 1 -10 -4 -10 -6 0 -11 5 -11 10 0 6 2 10 4 10 3 0 8
-4 11 -10z m122 -52 c-3 -7 -5 -2 -5 12 0 14 2 19 5 13 2 -7 2 -19 0 -25z
m-76 -23 c3 2 5 -5 5 -15 0 -11 -1 -20 -1 -20 -1 0 -12 15 -25 33 -19 26 -20
29 -3 14 11 -9 22 -15 24 -12z m53 -25 c-6 -6 -10 -3 -10 10 0 13 4 16 10 10
7 -7 7 -13 0 -20z m-168 -5 c10 -8 15 -14 9 -14 -5 0 -19 6 -29 14 -11 8 -15
15 -10 15 6 0 19 -7 30 -15z m227 -16 c33 -1 67 -5 124 -13 61 -9 63 -13 63
-135 0 -91 -19 -186 -55 -266 l-22 -50 -51 3 c-51 4 -52 5 -45 30 4 15 8 39 8
54 0 14 3 24 6 22 9 -5 29 134 29 195 0 27 -3 69 -6 95 -6 40 -10 47 -25 43
-11 -3 -19 -2 -19 3 0 4 -9 10 -20 13 -12 3 -20 13 -19 24 1 16 2 16 6 1 2
-10 14 -18 26 -19z m-276 5 c-3 -3 -12 -4 -19 -1 -8 3 -5 6 6 6 11 1 17 -2 13
-5z m203 -13 c0 -3 -4 -12 -9 -19 -6 -11 -9 -9 -13 5 -3 12 0 20 8 20 8 0 14
-3 14 -6z m32 -5 c7 4 8 2 4 -5 -9 -13 -26 -5 -25 12 0 9 2 8 6 -1 2 -6 10 -9
15 -6z m-35 -58 c-3 -8 -6 -5 -6 6 -1 11 2 17 5 13 3 -3 4 -12 1 -19z m-78
-38 c-2 -27 -7 -50 -11 -50 -5 0 -6 -10 -3 -22 6 -19 5 -21 -6 -11 -10 10 -10
18 -1 38 16 35 15 44 -3 21 -8 -11 -15 -15 -15 -9 0 7 5 15 10 18 6 4 7 11 4
17 -5 7 -2 8 6 3 10 -6 12 -4 7 9 -7 17 -2 36 9 36 3 0 4 -22 3 -50z m88 -67
c-2 -16 -4 -3 -4 27 0 30 2 43 4 28 2 -16 2 -40 0 -55z m-150 35 c-3 -7 -5 -2
-5 12 0 14 2 19 5 13 2 -7 2 -19 0 -25z m23 -22 c0 -3 -4 -8 -10 -11 -5 -3
-10 -1 -10 4 0 6 5 11 10 11 6 0 10 -2 10 -4z m-13 -41 c0 -7 -6 -12 -13 -12
-7 0 -11 4 -8 8 2 4 -2 9 -8 12 -7 3 -4 5 8 4 11 -1 21 -6 21 -12z m250 -7
c-3 -8 -6 -5 -6 6 -1 11 2 17 5 13 3 -3 4 -12 1 -19z m-232 -45 c-9 -15 -13
-19 -10 -8 4 11 10 29 13 40 3 11 7 14 9 8 3 -7 -3 -24 -12 -40z m110 1 c-9
-18 -15 -23 -15 -12 0 9 4 19 10 23 5 3 6 13 3 23 -4 13 -3 14 6 6 9 -8 8 -18
-4 -40z m-175 18 c0 -5 -11 -14 -25 -20 -39 -18 -44 -14 -10 7 36 23 35 23 35
13z m44 0 c3 -5 -1 -9 -9 -9 -8 0 -12 4 -9 9 3 4 7 8 9 8 2 0 6 -4 9 -8z
m-120 -20 c2 -4 -4 -8 -14 -8 -10 0 -16 4 -14 8 3 4 9 8 14 8 5 0 11 -4 14 -8z
m106 -17 c-12 -14 -7 -19 13 -16 5 1 5 -4 2 -10 -4 -6 -16 -9 -26 -6 -11 3
-19 2 -19 -3 0 -4 -8 -11 -17 -14 -14 -6 -14 -3 3 15 15 17 15 21 3 17 -9 -4
-16 -1 -16 7 0 10 5 11 18 5 12 -7 21 -5 29 5 7 8 15 15 17 15 3 0 0 -7 -7
-15z m172 -19 c7 4 8 2 4 -5 -10 -15 -26 -4 -25 17 1 15 2 15 6 -1 2 -9 9 -14
15 -11z m-32 -10 c0 -8 6 -16 13 -19 7 -2 8 -8 3 -13 -5 -5 -10 -4 -13 3 -2 7
-14 2 -29 -12 -15 -14 -23 -29 -18 -36 5 -8 3 -9 -6 -4 -10 6 -12 3 -8 -11 4
-14 0 -20 -13 -21 -11 -1 -19 0 -19 2 0 13 69 102 76 97 4 -4 4 1 1 11 -4 9
-2 17 3 17 6 0 10 -6 10 -14z m-4276 -119 c-7 -101 7 -230 28 -270 16 -31 2
-30 -36 3 -19 18 -50 60 -67 95 -28 58 -30 65 -19 106 7 24 19 58 27 74 17 34
61 95 69 95 2 0 2 -46 -2 -103z m4106 73 c-40 -35 -60 -40 -27 -7 12 12 25 22
29 22 3 0 10 3 14 8 4 4 10 7 13 7 3 -1 -10 -14 -29 -30z m257 -32 c-3 -7 -5
-2 -5 12 0 14 2 19 5 13 2 -7 2 -19 0 -25z m-30 -10 c-3 -8 -6 -5 -6 6 -1 11
2 17 5 13 3 -3 4 -12 1 -19z m3 -83 c-25 -48 -27 -30 -2 26 9 22 18 34 20 27
1 -7 -7 -31 -18 -53z m-433 -24 c8 -6 14 -41 7 -41 -8 0 -34 74 -33 94 1 13 4
9 9 -13 4 -18 12 -36 17 -40z m54 2 c-10 -8 -12 -12 -3 -13 14 0 17 -30 2 -30
-5 0 -10 7 -10 15 0 8 -5 15 -11 15 -8 0 -7 6 2 17 12 15 12 16 -6 9 -11 -4
-16 -4 -12 0 4 4 -1 13 -11 20 -10 8 -1 7 24 -3 36 -15 39 -19 25 -30z m191
40 c-10 -4 -10 -8 -1 -19 9 -12 9 -18 0 -27 -10 -9 -11 -8 -6 4 4 10 1 20 -4
24 -14 8 -5 25 12 24 8 0 8 -2 -1 -6z m-59 -34 c-6 -6 -34 -12 -62 -13 -61 -1
-54 11 9 17 25 2 49 4 55 5 5 1 4 -3 -2 -9z m-223 -56 c-11 -17 -11 -17 -6 0
3 10 7 26 7 35 1 15 2 15 6 0 2 -10 -1 -25 -7 -35z m170 27 c0 -5 -2 -10 -4
-10 -3 0 -8 5 -11 10 -3 6 -1 10 4 10 6 0 11 -4 11 -10z m276 -9 c2 -7 0 -7
-3 -1 -3 7 -9 5 -17 -5 -10 -15 -12 -14 -12 3 0 21 28 24 32 3z m-49 -13 c-3
-8 -6 -5 -6 6 -1 11 2 17 5 13 3 -3 4 -12 1 -19z m-367 -8 c0 -5 -5 -10 -11
-10 -5 0 -7 5 -4 10 3 6 8 10 11 10 2 0 4 -4 4 -10z m401 -31 c-5 -13 -10 -19
-10 -12 -1 15 10 45 15 40 3 -2 0 -15 -5 -28z m-45 -7 c-18 -16 -18 -16 -6 6
6 13 14 21 18 18 3 -4 -2 -14 -12 -24z m12 -27 c-6 -14 -13 -23 -15 -21 -5 5
15 46 22 46 3 0 -1 -11 -7 -25z m-437 -28 c-10 -9 -11 -8 -5 6 3 10 9 15 12
12 3 -3 0 -11 -7 -18z m440 -14 c-12 -20 -14 -14 -5 12 4 9 9 14 11 11 3 -2 0
-13 -6 -23z m-457 -20 c-5 -16 -4 -16 10 1 14 17 16 17 22 3 3 -10 10 -17 16
-17 5 0 6 5 3 10 -3 6 -1 10 5 10 7 0 10 -6 7 -14 -3 -8 2 -16 14 -19 17 -4
19 -2 13 16 -3 12 -3 19 1 15 4 -4 9 -22 11 -40 3 -26 1 -29 -7 -15 -13 22
-30 22 -22 0 10 -26 36 -53 45 -47 5 3 6 9 3 14 -3 5 4 7 15 5 28 -5 40 -14
39 -28 0 -9 -2 -9 -6 1 -2 6 -9 12 -15 12 -6 0 -8 -7 -5 -15 4 -8 2 -17 -4
-20 -5 -4 -6 -11 -3 -17 5 -7 2 -8 -5 -3 -9 5 -9 11 -3 17 12 12 4 40 -9 32
-5 -3 -6 -11 -3 -17 4 -7 -7 1 -24 17 -18 17 -32 36 -32 43 0 8 -6 13 -12 12
-31 -4 -49 2 -42 13 5 8 2 9 -10 5 -10 -4 -15 -3 -11 3 3 6 1 10 -6 10 -8 0
-8 4 1 15 16 20 21 19 14 -2z m450 -79 c8 -3 33 -30 56 -59 l41 -53 -20 -58
c-12 -32 -35 -82 -53 -112 -33 -55 -183 -222 -199 -222 -5 0 -23 13 -41 29
l-33 29 -30 -21 c-16 -11 -25 -14 -18 -7 6 7 9 18 7 25 -3 7 -1 16 5 20 7 4 8
-1 4 -12 -6 -17 -5 -17 15 1 12 10 19 23 15 29 -3 5 -1 7 5 3 10 -6 112 99
112 115 0 4 -4 11 -10 14 -5 3 -10 0 -10 -7 0 -9 -3 -9 -10 2 -8 12 -10 12
-10 1 0 -8 -3 -12 -6 -9 -9 9 16 49 26 43 5 -3 12 -1 15 5 5 8 11 8 20 0 10
-9 16 -6 25 10 6 11 8 26 4 32 -4 7 -3 8 4 4 7 -4 13 -2 13 3 3 20 5 26 26 66
36 70 47 116 32 126 -16 10 -8 12 15 3z m-278 -116 c-9 -12 -16 -17 -16 -11 0
7 5 15 10 18 6 3 10 11 10 17 0 6 -7 5 -17 -3 -15 -13 -15 -12 -2 8 11 19 15
20 22 8 5 -9 2 -24 -7 -37z m229 13 c-3 -3 -10 1 -15 9 -6 8 -10 10 -10 4 0
-5 -7 -19 -15 -30 -14 -16 -14 -14 0 14 13 28 19 31 31 21 8 -6 12 -14 9 -18z
m-2065 -70 c41 -16 102 -41 135 -57 33 -15 76 -27 95 -27 27 0 30 -1 15 -7
l-20 -8 20 -7 c11 -4 39 -16 62 -26 23 -10 50 -16 59 -12 12 4 15 3 10 -5 -4
-7 -1 -12 8 -12 9 0 16 4 16 8 0 4 9 8 19 8 11 0 17 -4 15 -8 -3 -4 -12 -8
-20 -8 -34 0 -8 -17 74 -48 52 -19 96 -30 108 -26 15 5 16 4 4 -5 -13 -9 -12
-11 5 -12 11 0 27 -2 35 -4 84 -18 153 -25 166 -15 7 7 21 10 31 7 13 -3 12
-5 -7 -7 -24 -2 -24 -3 5 -10 29 -7 29 -8 -10 -9 -173 -5 -661 130 -917 254
l-133 64 75 0 c59 1 91 -5 150 -28z m1691 16 c-6 -8 -9 -17 -6 -20 3 -4 2 -5
-2 -2 -7 6 -39 -36 -35 -47 1 -5 -3 -7 -9 -5 -6 1 -14 -4 -17 -12 -3 -9 0 -11
8 -6 9 6 11 4 5 -5 -6 -10 -4 -12 8 -7 12 4 14 2 9 -11 -6 -16 -4 -16 21 1 40
26 33 14 -10 -19 -21 -15 -32 -21 -25 -12 10 12 10 18 -2 27 -8 7 -16 8 -18 4
-3 -4 -3 -2 -2 5 5 17 -7 15 -36 -8 -14 -11 -31 -20 -38 -20 -7 0 -11 -4 -8
-9 4 -5 -3 -7 -14 -4 -17 4 -12 10 27 28 26 12 62 38 79 57 27 30 29 36 16 45
-14 8 -14 10 2 16 10 4 15 3 11 -3 -10 -16 11 -12 25 5 7 8 15 15 17 15 3 0 0
-6 -6 -13z m33 -51 c-3 -14 -10 -26 -15 -26 -6 0 -5 8 1 19 13 26 13 52 -1 29
-5 -10 -20 -23 -32 -29 -17 -9 -16 -5 8 19 33 34 50 29 39 -12z m109 -14 c-4
-9 -12 -26 -19 -36 -9 -13 -10 -25 -4 -37 8 -13 6 -17 -8 -14 -20 3 -44 -14
-36 -26 3 -5 -2 -9 -10 -9 -10 0 -13 -6 -9 -17 10 -28 32 -39 69 -38 18 1 31
-2 28 -7 -3 -4 -10 -6 -15 -3 -5 4 -9 0 -10 -7 0 -10 -2 -10 -6 0 -2 6 -9 12
-14 12 -6 0 -7 -5 -3 -12 4 -6 -9 1 -29 16 -20 16 -34 32 -31 37 3 5 1 9 -4 9
-17 0 -22 -13 -9 -28 10 -13 9 -14 -9 -4 -12 6 -23 10 -25 9 -3 -1 5 5 16 13
11 8 34 27 51 42 17 15 34 25 37 22 3 -4 6 2 6 12 0 28 24 93 33 88 4 -3 4
-12 1 -22z m-143 -12 c0 -5 -5 -10 -11 -10 -5 0 -7 5 -4 10 3 6 8 10 11 10 2
0 4 -4 4 -10z m-1387 -37 c-7 -2 -19 -2 -25 0 -7 3 -2 5 12 5 14 0 19 -2 13
-5z m54 1 c-3 -3 -12 -4 -19 -1 -8 3 -5 6 6 6 11 1 17 -2 13 -5z m83 -8 c0 -2
-7 -7 -16 -10 -8 -3 -12 -2 -9 4 6 10 25 14 25 6z m1398 -21 c-3 -3 -9 2 -12
12 -6 14 -5 15 5 6 7 -7 10 -15 7 -18z m-1477 -3 c-13 -2 -27 0 -32 5 -6 6 3
7 23 4 28 -4 29 -6 9 -9z m116 12 c-3 -3 -12 -4 -19 -1 -8 3 -5 6 6 6 11 1 17
-2 13 -5z m898 -4 c-3 -5 -12 -10 -18 -10 -7 0 -6 4 3 10 19 12 23 12 15 0z
m220 0 c-3 -5 -12 -10 -18 -10 -7 0 -6 4 3 10 19 12 23 12 15 0z m-1060 -10
c13 -5 14 -9 5 -9 -8 0 -24 4 -35 9 -13 5 -14 9 -5 9 8 0 24 -4 35 -9z m955
-11 c9 -5 -3 -6 -30 -2 -25 4 -53 7 -62 7 -9 0 -15 3 -12 7 5 9 84 -1 104 -12z
m-306 -39 c12 -38 13 -42 0 -26 -7 11 -14 28 -14 39 0 10 -5 15 -10 12 -6 -4
-8 -16 -5 -28 5 -19 5 -20 -5 -4 -6 9 -8 22 -5 28 5 6 -11 8 -47 5 l-53 -5 45
9 c25 6 51 8 58 5 6 -2 12 1 12 7 0 19 8 5 24 -42z m406 23 c-18 -7 -35 -11
-38 -8 -3 3 1 5 9 5 12 0 11 2 -1 11 -12 8 -10 9 7 4 12 -3 24 -1 28 5 3 6 11
7 17 4 6 -4 -4 -13 -22 -21z m358 10 c-6 -8 -17 -12 -24 -9 -9 4 -13 -2 -11
-17 2 -18 -3 -21 -22 -19 -14 1 -28 -3 -32 -9 -4 -6 -6 5 -6 25 1 35 10 46 22
26 3 -5 1 -10 -4 -10 -6 0 -11 -5 -11 -11 0 -6 7 -9 15 -5 8 3 15 1 15 -4 0
-6 4 -10 10 -10 5 0 9 10 7 23 -1 16 3 21 17 19 10 -2 16 1 12 6 -3 5 1 9 9 9
11 0 12 -3 3 -14z m-1463 -3 c3 -6 -1 -7 -9 -4 -18 7 -21 14 -7 14 6 0 13 -4
16 -10z m108 3 c-7 -2 -19 -2 -25 0 -7 3 -2 5 12 5 14 0 19 -2 13 -5z m60 -14
c-8 -8 -16 -8 -30 0 -16 9 -14 10 12 11 21 0 26 -3 18 -11z m-193 -9 c0 -5 -5
-10 -11 -10 -5 0 -7 5 -4 10 3 6 8 10 11 10 2 0 4 -4 4 -10z m253 3 c-7 -2
-21 -2 -30 0 -10 3 -4 5 12 5 17 0 24 -2 18 -5z m37 3 c0 -3 -4 -8 -10 -11 -5
-3 -10 -1 -10 4 0 6 5 11 10 11 6 0 10 -2 10 -4z m290 -7 c11 -7 4 -8 -25 -3
-50 8 -58 14 -19 14 16 0 36 -5 44 -11z m-172 -6 c-16 -2 -40 -2 -55 0 -16 2
-3 4 27 4 30 0 43 -2 28 -4z m672 3 c0 -2 -11 -6 -25 -8 -13 -3 -22 -1 -19 3
5 9 44 13 44 5z m-872 -13 c-10 -2 -26 -2 -35 0 -10 3 -2 5 17 5 19 0 27 -2
18 -5z m782 -7 c-4 -4 -21 -4 -37 2 -28 11 -28 11 9 9 21 -1 33 -6 28 -11z
m-880 -6 c0 -5 -5 -10 -11 -10 -5 0 -7 5 -4 10 3 6 8 10 11 10 2 0 4 -4 4 -10z
m473 3 c-7 -2 -19 -2 -25 0 -7 3 -2 5 12 5 14 0 19 -2 13 -5z m-388 -13 c-3
-5 -12 -10 -18 -10 -7 0 -6 4 3 10 19 12 23 12 15 0z m108 3 c-13 -2 -33 -2
-45 0 -13 2 -3 4 22 4 25 0 35 -2 23 -4z m234 1 c-3 -3 -12 -4 -19 -1 -8 3 -5
6 6 6 11 1 17 -2 13 -5z m143 -4 c0 -5 -7 -7 -15 -4 -8 4 -15 8 -15 10 0 2 7
4 15 4 8 0 15 -4 15 -10z m-93 -6 c-3 -3 -12 -4 -19 -1 -8 3 -5 6 6 6 11 1 17
-2 13 -5z m605 -14 c-12 -11 -25 -20 -29 -20 -9 1 36 40 45 40 3 0 -4 -9 -16
-20z m-916 -7 c-2 -10 -11 -19 -22 -20 -18 -3 -18 -2 1 6 14 7 15 10 5 10 -13
1 -13 2 0 11 19 13 19 13 16 -7z m-79 1 c-3 -3 -12 -4 -19 -1 -8 3 -5 6 6 6
11 1 17 -2 13 -5z m180 -10 c-3 -3 -12 -4 -19 -1 -8 3 -5 6 6 6 11 1 17 -2 13
-5z m190 0 c-3 -3 -12 -4 -19 -1 -8 3 -5 6 6 6 11 1 17 -2 13 -5z m578 -4 c-3
-5 -14 -10 -23 -9 -14 0 -13 2 3 9 27 11 27 11 20 0z m-3505 -8 c0 -5 9 -18
19 -29 19 -20 23 -20 98 -8 43 7 87 16 98 20 11 3 7 -1 -8 -10 -37 -21 -194
-61 -274 -68 -62 -7 -63 -6 -69 20 -4 15 -3 28 2 30 5 2 32 14 59 27 53 26 75
31 75 18z m2683 1 c-7 -2 -19 -2 -25 0 -7 3 -2 5 12 5 14 0 19 -2 13 -5z m222
-3 c13 -6 15 -9 5 -9 -8 0 -22 4 -30 9 -18 12 -2 12 25 0z m265 -15 c16 -9 20
-15 10 -16 -8 -1 -25 -3 -38 -4 -12 -1 -25 1 -27 5 -3 5 6 7 21 5 28 -3 20 10
-11 18 l-20 5 20 0 c11 1 31 -5 45 -13z m360 11 c0 -2 -7 -7 -16 -10 -8 -3
-12 -2 -9 4 6 10 25 14 25 6z m-92 -15 c11 -7 10 -9 -3 -14 -9 -4 -14 -3 -10
2 3 5 -1 12 -7 14 -7 3 -8 6 -3 6 6 0 16 -3 23 -8z m260 -2 c-10 -5 -18 -16
-18 -23 0 -13 -49 -41 -57 -32 -2 2 4 7 15 10 11 4 27 18 36 31 9 14 22 25 29
25 6 0 4 -5 -5 -11z m-801 -5 c-3 -3 -12 -4 -19 -1 -8 3 -5 6 6 6 11 1 17 -2
13 -5z m500 0 c-3 -3 -12 -4 -19 -1 -8 3 -5 6 6 6 11 1 17 -2 13 -5z m-549
-11 c-10 -2 -28 -2 -40 0 -13 2 -5 4 17 4 22 1 32 -1 23 -4z m98 -7 c-3 -25
-34 -45 -81 -56 -26 -6 -50 -9 -52 -6 -3 3 12 8 33 11 45 8 87 32 79 45 -3 4
1 11 7 13 7 3 14 6 15 6 1 1 0 -5 -1 -13z m304 10 c0 -2 -13 -6 -29 -8 -17 -2
-28 -1 -25 4 5 8 54 12 54 4z m74 -4 c-6 -4 -14 -14 -17 -22 -4 -10 -6 -8 -6
8 -1 15 5 22 17 22 10 0 13 -3 6 -8z m183 2 c-3 -3 -12 -4 -19 -1 -8 3 -5 6 6
6 11 1 17 -2 13 -5z m185 -37 c-6 -7 -25 -21 -44 -31 -30 -18 -32 -18 -18 -2
8 10 24 22 37 27 13 5 23 16 24 26 0 11 3 13 6 5 3 -7 0 -18 -5 -25z m-789 12
c-6 -6 -26 -12 -44 -14 l-34 -4 35 13 c43 18 57 19 43 5z m334 -11 c-3 -8 -6
-5 -6 6 -1 11 2 17 5 13 3 -3 4 -12 1 -19z m370 -3 c0 -8 -4 -15 -9 -15 -10 0
-11 14 -1 23 9 10 10 9 10 -8z m-790 -11 c-3 -3 -12 -4 -19 -1 -8 3 -5 6 6 6
11 1 17 -2 13 -5z m410 -36 c-3 -7 -5 -2 -5 12 0 14 2 19 5 13 2 -7 2 -19 0
-25z m87 -1 c2 -15 0 -27 -5 -27 -5 0 -9 14 -9 32 0 37 7 34 14 -5z m-581 16
c-7 -2 -21 -2 -30 0 -10 3 -4 5 12 5 17 0 24 -2 18 -5z m873 -8 c-2 -15 -55
-50 -63 -42 -2 3 11 12 29 20 18 9 29 17 25 17 -5 0 -5 5 -2 10 9 15 14 12 11
-5z m-918 -7 c8 -9 60 -15 145 -19 l132 -6 -135 3 c-74 1 -153 3 -175 4 l-40
2 35 9 c30 7 28 8 -20 5 -30 -1 -68 1 -85 5 -21 4 -5 7 51 8 52 1 84 -3 92
-11z m212 8 c0 -9 -30 -14 -35 -6 -4 6 3 10 14 10 12 0 21 -2 21 -4z m446 -15
c-4 -5 -2 -11 3 -13 5 -1 1 -13 -9 -25 -14 -18 -19 -20 -24 -8 -3 8 0 14 7 12
7 -1 13 5 13 13 3 26 4 30 10 30 3 0 3 -4 0 -9z m185 -14 c-6 -8 -7 -18 -3
-22 4 -5 0 -4 -8 1 -8 5 -22 7 -32 6 -9 -2 -19 2 -23 9 -5 7 -1 9 11 5 11 -3
26 -1 34 4 22 14 34 12 21 -3z m-506 -15 c-3 -3 -11 0 -18 7 -9 10 -8 11 6 5
10 -3 15 -9 12 -12z m186 -68 c-7 -68 -9 -72 -10 -28 -1 50 8 118 15 111 2 -2
0 -39 -5 -83z m-251 48 c0 -5 -7 -9 -15 -9 -8 0 -12 4 -9 9 3 4 9 8 15 8 5 0
9 -4 9 -8z m520 -7 c-46 -18 -64 -17 -25 0 17 8 37 14 45 14 8 0 -1 -7 -20
-14z m-4156 -36 c3 -17 6 -46 6 -65 0 -30 -4 -34 -37 -44 -64 -18 -214 -24
-287 -10 -72 13 -71 11 -60 94 l7 46 68 0 69 0 0 -39 c0 -38 1 -38 42 -44 24
-3 64 -1 90 4 44 10 47 12 53 50 9 50 39 55 49 8z m3596 26 c0 -6 -95 -32
-143 -39 -22 -3 -35 -1 -32 5 4 5 23 9 43 10 20 0 55 6 77 14 47 15 55 17 55
10z m150 -20 c0 -8 -7 -15 -15 -15 -13 0 -14 3 -3 15 16 18 18 18 18 0z m347
9 c-3 -3 -12 -4 -19 -1 -8 3 -5 6 6 6 11 1 17 -2 13 -5z m-313 -19 c-4 -8 -11
-12 -16 -9 -6 4 -5 10 3 15 19 12 19 11 13 -6z m-377 -1 c-3 -3 -12 -4 -19 -1
-8 3 -5 6 6 6 11 1 17 -2 13 -5z m223 -3 c0 -5 -9 -7 -20 -4 -11 3 -20 7 -20
9 0 2 9 4 20 4 11 0 20 -4 20 -9z m-127 -18 c-7 -2 -19 -2 -25 0 -7 3 -2 5 12
5 14 0 19 -2 13 -5z m267 -3 c13 -8 13 -10 -2 -10 -9 0 -20 5 -23 10 -8 13 5
13 25 0z m80 -6 c0 -8 -4 -12 -10 -9 -5 3 -10 10 -10 16 0 5 5 9 10 9 6 0 10
-7 10 -16z m-247 -1 c-13 -2 -33 -2 -45 0 -13 2 -3 4 22 4 25 0 35 -2 23 -4z
m194 -40 c-3 -10 -5 -4 -5 12 0 17 2 24 5 18 2 -7 2 -21 0 -30z m55 -64 c9 -6
6 -8 -7 -7 -16 2 -20 10 -22 37 -1 36 -1 36 7 7 5 -16 15 -33 22 -37z m-45 4
c-3 -10 -5 -4 -5 12 0 17 2 24 5 18 2 -7 2 -21 0 -30z m23 -48 c4 11 5 -11 2
-49 -4 -55 -2 -67 8 -61 9 6 11 4 5 -4 -13 -22 -22 2 -28 74 -2 39 -2 59 0 45
5 -23 6 -24 13 -5z m21 -46 c-5 -13 -10 -19 -10 -12 -1 15 10 45 15 40 3 -2 0
-15 -5 -28z m53 -159 c9 -91 31 -280 47 -420 42 -353 36 -451 -33 -489 -36
-20 -78 -5 -98 34 -19 40 -18 161 5 334 14 110 16 178 11 370 -4 129 -3 232 0
228 12 -12 33 27 27 51 -3 13 -1 22 6 22 6 0 11 10 11 22 0 57 9 -2 24 -152z"/>
<path d="M2472 4917 c-58 -16 -79 -27 -96 -51 -28 -38 -79 -163 -96 -234 -11
-50 -11 -54 8 -67 32 -23 52 -78 104 -280 151 -587 256 -976 318 -1169 32 -99
37 -178 16 -227 -9 -20 22 -52 74 -79 35 -18 36 -18 120 11 91 30 238 59 301
59 21 0 82 9 136 19 296 57 477 209 539 453 22 85 14 239 -16 326 -22 63 -23
64 -53 58 -17 -3 -32 -8 -34 -10 -2 -2 4 -34 13 -72 22 -94 15 -247 -15 -326
-113 -294 -537 -466 -856 -347 -51 19 -58 26 -84 77 -68 136 -214 529 -285
767 -57 193 -104 390 -136 576 -16 96 -35 188 -41 205 -11 27 -8 43 15 118 23
73 35 95 74 135 26 26 58 54 72 63 33 22 12 21 -78 -5z"/>
<path d="M2830 4640 c-21 -50 -14 -118 21 -214 31 -85 31 -90 14 -103 -11 -7
-22 -13 -27 -13 -13 0 -45 72 -69 155 -26 95 -39 114 -39 60 1 -106 33 -218
82 -288 l20 -28 46 27 c125 72 200 151 209 224 3 20 -2 62 -11 93 -24 81 -65
111 -161 115 l-72 4 -13 -32z"/>
<path d="M3677 3917 c16 -18 39 -50 52 -71 19 -30 28 -36 45 -32 11 3 25 6 29
6 15 0 -44 68 -81 92 -63 41 -78 43 -45 5z"/>
<path d="M3185 3703 c-11 -2 -40 -12 -63 -20 l-44 -16 7 -46 c3 -25 21 -90 39
-144 33 -101 32 -119 -10 -103 -16 6 -74 124 -95 194 -20 69 -28 48 -12 -35
16 -84 65 -214 89 -234 18 -15 81 -5 146 23 193 83 191 353 -2 381 -19 3 -44
3 -55 0z"/>
<path d="M4485 4759 c-111 -36 -193 -115 -236 -228 -30 -80 -24 -203 13 -283
35 -75 104 -142 186 -181 61 -29 76 -32 162 -32 86 0 101 3 162 32 81 38 146
102 185 181 25 51 28 68 28 157 0 83 -4 108 -23 150 l-23 50 -32 -37 c-43 -49
-91 -72 -152 -72 -129 -1 -219 126 -182 257 9 33 -2 34 -88 6z m378 -456 c43
-21 46 -25 36 -45 -25 -46 -92 -107 -142 -128 -51 -22 -162 -38 -190 -27 -13
5 -11 17 11 76 23 60 31 71 50 71 34 0 85 26 118 61 31 32 38 32 117 -8z"/>
<path d="M3951 4582 c-36 -78 -51 -151 -50 -252 1 -216 82 -362 240 -434 57
-26 159 -45 159 -29 0 5 -34 31 -76 58 -83 54 -164 136 -194 195 -54 107 -83
309 -61 434 7 38 10 70 8 72 -2 2 -14 -17 -26 -44z"/>
<path d="M5152 4204 c-13 -86 -52 -179 -100 -242 -18 -24 -31 -47 -28 -50 15
-14 78 31 106 75 40 62 50 102 50 193 0 104 -13 115 -28 24z"/>
<path d="M7334 4764 c-142 -50 -209 -219 -135 -337 41 -63 96 -91 181 -91 114
-1 202 65 230 172 40 154 -147 269 -287 175 l-38 -25 25 27 c37 40 96 67 162
72 31 3 55 10 52 14 -8 14 -145 9 -190 -7z"/>
<path d="M7853 4487 c-10 -35 -30 -65 -80 -119 -36 -40 -97 -110 -135 -155
-49 -58 -84 -89 -121 -107 -53 -27 -41 -34 28 -15 111 30 208 100 262 190 37
62 66 163 61 216 l-3 38 -12 -48z"/>
<path d="M5796 4739 c-68 -23 -148 -73 -189 -117 -26 -27 -29 -39 -33 -113
l-5 -84 27 53 c66 126 175 226 289 262 l60 19 -45 0 c-25 0 -72 -9 -104 -20z"/>
<path d="M6021 4499 c-158 -31 -262 -198 -217 -351 23 -79 64 -131 130 -163
47 -23 66 -27 118 -23 197 12 298 199 197 363 l-31 50 32 -30 c45 -42 77 -111
90 -191 6 -38 13 -70 15 -72 6 -6 17 81 17 127 -2 65 -11 100 -37 146 -64 110
-191 169 -314 144z"/>
<path d="M1722 3125 c-28 -35 -35 -107 -22 -205 19 -141 61 -227 98 -204 52
32 68 166 37 302 -28 121 -70 161 -113 107z"/>
<path d="M2205 2220 c12 -38 45 -101 71 -137 13 -17 24 -35 24 -38 0 -8 -60
39 -119 94 -24 23 -46 39 -48 37 -5 -5 47 -107 78 -155 l22 -33 -34 17 c-57
29 -90 56 -83 67 4 7 2 8 -5 4 -6 -4 -19 -2 -27 5 -29 24 -24 1 12 -52 20 -30
37 -59 37 -66 0 -7 4 -10 8 -7 5 2 27 -10 51 -28 24 -18 63 -42 87 -53 l44
-19 68 73 c38 40 69 78 69 84 -1 7 -21 25 -46 41 -25 15 -84 65 -131 110 -64
60 -84 74 -78 56z"/>
<path d="M7693 3744 c-27 -13 -82 -74 -56 -62 4 2 24 12 45 22 36 18 68 17 68
-4 0 -5 -5 -10 -11 -10 -5 0 -7 5 -4 10 3 6 1 10 -4 10 -17 0 -13 -79 7 -113
22 -41 36 -50 43 -30 3 10 8 12 12 6 7 -11 -23 -48 -44 -55 -17 -6 -4 -37 18
-45 26 -9 73 -54 73 -70 0 -8 5 -11 10 -8 6 4 10 39 10 78 -1 40 1 97 5 127 7
65 -14 107 -67 140 -40 24 -63 25 -105 4z m93 -59 c-3 -8 2 -16 10 -19 8 -3
13 -16 13 -28 -2 -23 -2 -23 -6 -1 -2 12 -16 26 -31 32 -20 7 -22 10 -8 10 15
1 16 4 6 16 -11 13 -10 14 4 9 10 -4 15 -12 12 -19z m-44 -47 c-7 -7 -12 -8
-12 -2 0 14 12 26 19 19 2 -3 -1 -11 -7 -17z m28 -62 c0 -12 -5 -7 -19 24 -11
24 -11 24 3 6 9 -11 16 -24 16 -30z m43 19 c-3 -9 -8 -14 -10 -11 -3 3 -2 9 2
15 9 16 15 13 8 -4z"/>
<path d="M7750 2441 c0 -13 28 -33 33 -23 3 4 -3 13 -14 20 -10 7 -19 8 -19 3z"/>
<path d="M8045 2120 c-4 -6 -3 -16 3 -22 6 -6 12 -6 17 2 4 6 3 16 -3 22 -6 6
-12 6 -17 -2z"/>
<path d="M3230 5891 c-121 -64 -23 -262 114 -231 112 25 160 118 99 191 -50
59 -144 77 -213 40z"/>
</g>
</svg>
